<svg width="28" height="28" viewBox="0 0 28 28" fill="none" xmlns="http://www.w3.org/2000/svg">
  <rect width="28" height="28" rx="6.5" fill="#007AFF" />
  <path d="M21.5583 5.22383C21.7005 5.07553 21.969 5.10612 22.158 5.29216L22.3291 5.4606C22.5182 5.64664 22.5561 5.91767 22.414 6.06597L22.1565 6.33449C22.0854 6.40864 21.9512 6.39334 21.8566 6.30031L21.3433 5.79504C21.2487 5.70201 21.2298 5.56649 21.3008 5.49235L21.5583 5.22383Z" fill="white" />
  <path d="M20.9147 5.89513C20.9858 5.82099 21.12 5.83628 21.2145 5.92931L21.7279 6.43458C21.8224 6.52761 21.8414 6.66313 21.7703 6.73727L12.5667 16.3368C12.3296 16.5842 11.6852 16.7851 11.3627 16.8737C11.2851 16.8951 11.1975 16.8088 11.2163 16.7296C11.2943 16.4004 11.4739 15.742 11.711 15.4947L20.9147 5.89513Z" fill="white" />
  <path d="M7.84323 7.32942C6.5491 7.32942 5.5 8.39234 5.5 9.70352V20.4949C5.5 21.8061 6.5491 22.869 7.84323 22.869H18.4943C19.7884 22.869 20.8375 21.8061 20.8375 20.4949V11.8618C20.8375 11.5042 20.5514 11.2143 20.1985 11.2143C19.8455 11.2143 19.5594 11.5042 19.5594 11.8618V20.4949C19.5594 21.0909 19.0825 21.574 18.4943 21.574H7.84323C7.25499 21.574 6.77813 21.0909 6.77813 20.4949V9.70352C6.77813 9.10753 7.25499 8.62438 7.84323 8.62438H16.7901C17.1431 8.62438 17.4292 8.33449 17.4292 7.9769C17.4292 7.6193 17.1431 7.32942 16.7901 7.32942H7.84323Z" fill="white" />
</svg>