<svg width="245" height="113" viewBox="0 0 245 113" fill="none" xmlns="http://www.w3.org/2000/svg">
  <path d="M11.2958 10.37V35.9244H27.7303C32.0202 35.9244 35.3225 34.8287 37.6373 32.6375C39.9828 30.4154 41.1556 27.2519 41.1556 23.1472C41.1556 19.135 39.9365 16.0024 37.4984 13.7494C35.0602 11.4965 31.6807 10.37 27.3599 10.37H11.2958ZM11.2958 43.3314V87.3965H2.96289V2.96289H28.471C34.9213 2.96289 40.0754 4.7838 43.9333 8.42561C47.822 12.0366 49.7663 16.8512 49.7663 22.8694C49.7663 27.5297 48.5781 31.5573 46.2017 34.9522C43.8252 38.3471 40.5384 40.7081 36.341 42.0352L45.0206 57.2318H35.2526L27.7303 43.3314H11.2958Z" fill="#242424" />
  <path d="M73.2375 57.2318H64.9045V2.96289H73.2375V57.2318Z" fill="#242424" />
  <path d="M98.6067 57.2318H90.2738V2.96289H98.6067V35.4151H99.3474L128.605 2.96289H139.068L112.356 31.8042L131.45 57.2318H120.663L106.616 37.591L98.6067 46.4332V57.2318Z" fill="#242424" />
  <path d="M161.104 57.2318H152.771V3.4417H161.104V57.2318Z" fill="#242424" />
  <path d="M49.7663 22.8694C49.7663 16.8512 47.822 12.0366 43.9333 8.42561C40.196 4.89767 35.2424 3.07808 29.0723 2.96777L28.471 2.96289L28.4707 0C35.4957 0 41.4299 1.99793 45.9492 6.25488L46.3711 6.65723C50.6608 10.8579 52.7294 16.3589 52.7295 22.8691C52.7295 28.0585 51.3966 32.6976 48.6289 36.6514C46.5397 39.636 43.8438 41.9235 40.5996 43.5166L47.5938 55.7627C48.1172 56.6795 48.1129 57.8056 47.583 58.7188C47.0529 59.6321 46.0766 60.1943 45.0205 60.1943H35.2529C34.1652 60.1943 33.1642 59.5983 32.6465 58.6416L25.9648 46.2939H14.2588V87.3965C14.2588 89.0328 12.9322 90.3593 11.2959 90.3594H2.96289C1.32656 90.3594 0 89.0328 0 87.3965V2.96289C0 1.32656 1.32656 0 2.96289 0H28.4707L28.471 2.96289H2.96289V87.3965H11.2958V43.3314H27.7303L35.2526 57.2318H45.0206L36.341 42.0352C40.4072 40.7496 43.6193 38.4938 45.9766 35.2676L46.2017 34.9522C48.4296 31.7694 49.6128 28.0303 49.752 23.7354L49.7663 22.8694ZM73.2375 2.96289H64.9045V57.2318H73.2375V2.96289ZM90.2738 2.96289V57.2318H98.6067V46.4332L106.616 37.591L120.663 57.2318H131.45L112.356 31.8042L139.068 2.96289H128.605L99.3474 35.4151H98.6067V2.96289H90.2738ZM161.104 3.4417H152.771V57.2318H161.104V3.4417ZM38.1924 23.1475C38.1924 19.7752 37.194 17.5028 35.4873 15.9258C33.7457 14.3165 31.167 13.3331 27.3604 13.333H14.2588V32.9619H27.7305L27.7303 35.9244H11.2958V10.37H27.3599C31.6807 10.37 35.0602 11.4965 37.4984 13.7494C39.9365 16.0024 41.1556 19.135 41.1556 23.1472L41.1416 23.9062C41.0041 27.6438 39.8361 30.5543 37.6373 32.6375L37.417 32.8398C35.1149 34.8961 31.8859 35.9243 27.7303 35.9244L27.7305 32.9619C31.5297 32.9619 34.0028 31.9976 35.5996 30.4863L35.8936 30.1924C37.3243 28.6747 38.1923 26.4512 38.1924 23.1475ZM164.066 57.2314C164.066 58.8678 162.74 60.1943 161.104 60.1943H152.771C151.134 60.1941 149.809 58.8676 149.809 57.2314V3.44141C149.809 1.80537 151.134 0.478768 152.771 0.478516H161.104L161.257 0.482422C162.822 0.561983 164.066 1.85649 164.066 3.44141V57.2314ZM76.2002 57.2314C76.2002 58.8678 74.8736 60.1943 73.2373 60.1943H64.9043C63.2681 60.1942 61.9414 58.8677 61.9414 57.2314V2.96289C61.9414 1.32665 63.2681 0.00013477 64.9043 0H73.2373L73.3896 0.00390625C74.9553 0.0830983 76.2002 1.37759 76.2002 2.96289V57.2314ZM101.569 28.5254L126.405 0.978516L126.513 0.865234C127.067 0.312626 127.819 0 128.605 0H139.067L139.287 0.0078125C140.376 0.0883303 141.341 0.764691 141.783 1.77637C142.225 2.78813 142.066 3.95567 141.385 4.80957L141.241 4.97656L116.21 32.0029L133.819 55.4531C134.493 56.3506 134.602 57.5517 134.101 58.5557C133.599 59.5597 132.573 60.1942 131.45 60.1943H120.663C119.707 60.1943 118.809 59.7328 118.253 58.9551L106.344 42.3037L101.569 47.5752V57.2314C101.569 58.8678 100.243 60.1943 98.6064 60.1943H90.2734C88.6373 60.1942 87.3105 58.8677 87.3105 57.2314V2.96289C87.3105 1.32668 88.6373 0.000181967 90.2734 0H98.6064L98.7588 0.00390625C100.324 0.0830547 101.569 1.37756 101.569 2.96289V28.5254Z" fill="#242424" />
  <path d="M49.7663 22.8694C49.7663 16.8512 47.822 12.0366 43.9333 8.42561C40.196 4.89767 35.2424 3.07808 29.0723 2.96777L28.471 2.96289L28.4707 0C35.4957 0 41.4299 1.99793 45.9492 6.25488L46.3711 6.65723C50.6608 10.8579 52.7294 16.3589 52.7295 22.8691C52.7295 28.0585 51.3966 32.6976 48.6289 36.6514C46.5397 39.636 43.8438 41.9235 40.5996 43.5166L47.5938 55.7627C48.1172 56.6795 48.1129 57.8056 47.583 58.7188C47.0529 59.6321 46.0766 60.1943 45.0205 60.1943H35.2529C34.1652 60.1943 33.1642 59.5983 32.6465 58.6416L25.9648 46.2939H14.2588V87.3965C14.2588 89.0328 12.9322 90.3593 11.2959 90.3594H2.96289C1.32656 90.3594 0 89.0328 0 87.3965V2.96289C0 1.32656 1.32656 0 2.96289 0H28.4707L28.471 2.96289H2.96289V87.3965H11.2958V43.3314H27.7303L35.2526 57.2318H45.0206L36.341 42.0352C40.4072 40.7496 43.6193 38.4938 45.9766 35.2676L46.2017 34.9522C48.4296 31.7694 49.6128 28.0303 49.752 23.7354L49.7663 22.8694ZM73.2375 2.96289H64.9045V57.2318H73.2375V2.96289ZM90.2738 2.96289V57.2318H98.6067V46.4332L106.616 37.591L120.663 57.2318H131.45L112.356 31.8042L139.068 2.96289H128.605L99.3474 35.4151H98.6067V2.96289H90.2738ZM161.104 3.4417H152.771V57.2318H161.104V3.4417ZM38.1924 23.1475C38.1924 19.7752 37.194 17.5028 35.4873 15.9258C33.7457 14.3165 31.167 13.3331 27.3604 13.333H14.2588V32.9619H27.7305L27.7303 35.9244H11.2958V10.37H27.3599C31.6807 10.37 35.0602 11.4965 37.4984 13.7494C39.9365 16.0024 41.1556 19.135 41.1556 23.1472L41.1416 23.9062C41.0041 27.6438 39.8361 30.5543 37.6373 32.6375L37.417 32.8398C35.1149 34.8961 31.8859 35.9243 27.7303 35.9244L27.7305 32.9619C31.5297 32.9619 34.0028 31.9976 35.5996 30.4863L35.8936 30.1924C37.3243 28.6747 38.1923 26.4512 38.1924 23.1475ZM164.066 57.2314C164.066 58.8678 162.74 60.1943 161.104 60.1943H152.771C151.134 60.1941 149.809 58.8676 149.809 57.2314V3.44141C149.809 1.80537 151.134 0.478768 152.771 0.478516H161.104L161.257 0.482422C162.822 0.561983 164.066 1.85649 164.066 3.44141V57.2314ZM76.2002 57.2314C76.2002 58.8678 74.8736 60.1943 73.2373 60.1943H64.9043C63.2681 60.1942 61.9414 58.8677 61.9414 57.2314V2.96289C61.9414 1.32665 63.2681 0.00013477 64.9043 0H73.2373L73.3896 0.00390625C74.9553 0.0830983 76.2002 1.37759 76.2002 2.96289V57.2314ZM101.569 28.5254L126.405 0.978516L126.513 0.865234C127.067 0.312626 127.819 0 128.605 0H139.067L139.287 0.0078125C140.376 0.0883303 141.341 0.764691 141.783 1.77637C142.225 2.78813 142.066 3.95567 141.385 4.80957L141.241 4.97656L116.21 32.0029L133.819 55.4531C134.493 56.3506 134.602 57.5517 134.101 58.5557C133.599 59.5597 132.573 60.1942 131.45 60.1943H120.663C119.707 60.1943 118.809 59.7328 118.253 58.9551L106.344 42.3037L101.569 47.5752V57.2314C101.569 58.8678 100.243 60.1943 98.6064 60.1943H90.2734C88.6373 60.1942 87.3105 58.8677 87.3105 57.2314V2.96289C87.3105 1.32668 88.6373 0.000181967 90.2734 0H98.6064L98.7588 0.00390625C100.324 0.0830547 101.569 1.37756 101.569 2.96289V28.5254Z" fill="#242424" />
  <path d="M233.205 89.889C232.128 89.889 231.153 89.7144 230.28 89.3651C229.407 89.045 228.636 88.5939 227.967 88.0118C227.326 87.4297 226.788 86.7457 226.351 85.9599C225.944 85.145 225.624 84.2719 225.391 83.3405C225.187 82.4092 225.085 81.4487 225.085 80.4592C225.085 78.9749 225.289 77.4178 225.696 75.7879C226.104 74.1581 226.715 72.6447 227.53 71.2477C228.374 69.8507 229.451 68.7156 230.761 67.8425C232.07 66.9402 233.627 66.4891 235.432 66.4891C236.363 66.4891 237.178 66.6928 237.877 67.1003C238.604 67.4787 239.172 68.0025 239.579 68.6719C239.987 69.3413 240.19 70.1126 240.19 70.9857C240.19 72.2663 239.754 73.5178 238.881 74.7402C238.037 75.9335 236.931 77.0831 235.563 78.1891C234.224 79.295 232.783 80.3137 231.241 81.245C229.727 82.1763 228.301 82.9913 226.962 83.6898L225.827 80.8084C226.759 80.2846 227.806 79.6588 228.971 78.9312C230.164 78.2036 231.314 77.4178 232.419 76.5738C233.525 75.7297 234.442 74.8857 235.17 74.0417C235.897 73.1977 236.261 72.4118 236.261 71.6842C236.261 71.2477 236.13 70.8548 235.868 70.5055C235.636 70.1563 235.213 69.9816 234.602 69.9816C233.671 69.9816 232.856 70.3309 232.158 71.0294C231.459 71.7279 230.862 72.6156 230.368 73.6924C229.902 74.7402 229.538 75.8462 229.276 77.0103C229.043 78.1454 228.927 79.1641 228.927 80.0663C228.927 80.9394 229.014 81.7543 229.189 82.5111C229.364 83.2678 229.64 83.9372 230.018 84.5193C230.426 85.1013 230.964 85.567 231.634 85.9163C232.303 86.2364 233.118 86.3965 234.078 86.3965C234.922 86.3965 235.752 86.2073 236.567 85.8289C237.411 85.4215 238.226 84.8976 239.012 84.2573C239.827 83.5879 240.583 82.8749 241.282 82.1181C241.631 81.7107 242.038 81.5652 242.504 81.6816C242.97 81.798 243.348 82.0163 243.639 82.3364C243.93 82.6566 244.09 82.9913 244.119 83.3405C244.178 83.6898 244.032 84.0827 243.683 84.5193C242.577 85.9163 241.442 87.0077 240.278 87.7935C239.113 88.5502 237.935 89.0886 236.741 89.4088C235.577 89.7289 234.399 89.889 233.205 89.889Z" fill="#007AFF" />
  <path d="M210.94 89.889C210.387 89.889 210.009 89.7144 209.805 89.3651C209.573 89.045 209.485 88.6666 209.543 88.2301C209.573 87.7644 209.747 87.3715 210.067 87.0513C210.387 86.7021 210.824 86.5275 211.377 86.5275C212.57 86.5275 213.88 86.3092 215.306 85.8726C216.732 85.436 218.304 84.7666 220.021 83.8644C221.709 82.9622 223.543 81.8126 225.522 80.4155C225.842 80.1827 226.118 80.1682 226.351 80.3719C226.613 80.5465 226.802 80.8375 226.919 81.245C227.035 81.6234 227.064 82.0163 227.006 82.4237C226.977 82.8021 226.846 83.0786 226.613 83.2532C224.43 84.8248 222.408 86.1054 220.545 87.095C218.682 88.0554 216.965 88.7539 215.393 89.1905C213.793 89.6562 212.308 89.889 210.94 89.889Z" fill="#007AFF" />
  <path d="M210.497 89.889C207.528 89.889 205.287 89.0595 203.774 87.4006C202.261 85.7125 201.504 83.5443 201.504 80.8958C201.504 79.3532 201.78 77.7525 202.333 76.0936C202.915 74.4055 203.759 72.8339 204.865 71.3786C205.971 69.9234 207.339 68.7447 208.969 67.8425C210.628 66.9402 212.52 66.4891 214.644 66.4891C216.362 66.4891 217.802 66.7511 218.966 67.2749C220.16 67.7988 221.193 68.5701 222.066 69.5887C222.503 70.1126 222.648 70.5637 222.503 70.9421C222.386 71.2913 222.153 71.626 221.804 71.9462C221.426 72.2372 221.047 72.4119 220.669 72.4701C220.291 72.4992 219.898 72.2954 219.49 71.8589C218.937 71.2477 218.253 70.782 217.438 70.4619C216.624 70.1417 215.561 69.9816 214.252 69.9816C212.796 69.9816 211.516 70.3454 210.41 71.0731C209.304 71.8007 208.372 72.7465 207.616 73.9107C206.888 75.0458 206.335 76.2536 205.957 77.5342C205.608 78.7857 205.433 79.9644 205.433 81.0704C205.433 82.0017 205.608 82.8894 205.957 83.7334C206.335 84.5775 206.932 85.2614 207.747 85.7853C208.562 86.2801 209.624 86.5275 210.934 86.5275C211.341 86.5275 211.618 86.7021 211.763 87.0513C211.938 87.3715 211.996 87.7644 211.938 88.2301C211.88 88.6666 211.719 89.045 211.458 89.3651C211.225 89.7144 210.905 89.889 210.497 89.889Z" fill="#007AFF" />
  <path d="M191.026 89.889C190.619 89.889 190.313 89.7144 190.109 89.3651C189.906 89.045 189.833 88.6812 189.891 88.2737C189.92 87.8372 190.095 87.4588 190.415 87.1386C190.735 86.7894 191.201 86.6148 191.812 86.6148C192.569 86.6148 193.369 86.3383 194.213 85.7853C195.057 85.2323 195.93 84.461 196.833 83.4715C197.706 82.4819 198.608 81.3178 199.539 79.979C200.471 78.6402 201.417 77.185 202.377 75.6133C202.61 75.235 202.93 75.0749 203.337 75.1331C203.745 75.1913 204.08 75.3805 204.342 75.7006C204.603 75.9917 204.618 76.3264 204.385 76.7047C203.134 78.8876 201.94 80.8084 200.805 82.4674C199.699 84.1263 198.623 85.5088 197.575 86.6148C196.498 87.6916 195.436 88.5065 194.388 89.0595C193.311 89.6125 192.19 89.889 191.026 89.889Z" fill="#007AFF" />
  <path d="M190.594 89.889C189.314 89.889 188.353 89.6416 187.713 89.1468C187.102 88.6812 186.723 88.0845 186.578 87.3569C186.432 86.6002 186.432 85.8144 186.578 84.9995C186.723 84.1554 186.912 83.3842 187.145 82.6857L190.114 74.129C190.376 73.3723 190.536 72.6883 190.594 72.0771C190.681 71.4369 190.58 70.9275 190.289 70.5492C190.027 70.1708 189.488 69.9816 188.673 69.9816C187.713 69.9816 186.636 70.4037 185.443 71.2477C184.279 72.0917 183.071 73.2704 181.819 74.7839C180.597 76.2973 179.374 78.1017 178.152 80.1973C176.93 82.2637 175.795 84.5484 174.747 87.0513L174.223 88.6666C174.107 89.045 173.888 89.3215 173.568 89.4961C173.277 89.6998 172.797 89.8017 172.127 89.8017C171.662 89.8017 171.225 89.6998 170.818 89.4961C170.439 89.2924 170.338 88.914 170.512 88.361L176.188 70.8111C176.275 70.5201 176.26 70.2727 176.144 70.069C176.057 69.8652 175.838 69.7634 175.489 69.7634C175.14 69.7634 174.892 69.6033 174.747 69.2831C174.63 68.9339 174.616 68.5555 174.703 68.1481C174.79 67.7115 174.994 67.3331 175.314 67.013C175.635 66.6637 176.057 66.4891 176.58 66.4891C177.657 66.4891 178.443 66.6928 178.938 67.1003C179.462 67.4787 179.782 67.988 179.898 68.6283C180.015 69.2395 180.015 69.8943 179.898 70.5928C179.782 71.2913 179.636 71.9316 179.462 72.5137L178.589 75.1331C179.491 73.7361 180.408 72.5137 181.339 71.466C182.299 70.3891 183.26 69.4869 184.22 68.7593C185.181 68.0025 186.156 67.435 187.145 67.0567C188.135 66.6783 189.124 66.4891 190.114 66.4891C191.453 66.4891 192.486 66.8238 193.214 67.4932C193.941 68.1335 194.349 69.0939 194.436 70.3745C194.523 71.6551 194.247 73.2413 193.606 75.1331L191.031 82.642C190.507 84.1555 190.259 85.2032 190.289 85.7853C190.347 86.3383 190.725 86.6148 191.424 86.6148C191.831 86.6148 192.122 86.7894 192.297 87.1386C192.5 87.4588 192.573 87.8372 192.515 88.2737C192.486 88.6812 192.311 89.045 191.991 89.3651C191.671 89.7144 191.205 89.889 190.594 89.889Z" fill="#007AFF" />
  <path d="M160.951 89.889C160.486 89.889 160.195 89.7144 160.078 89.3651C159.933 89.045 159.933 88.6812 160.078 88.2737C160.195 87.8372 160.398 87.4588 160.689 87.1386C160.98 86.7894 161.301 86.6148 161.65 86.6148C162.174 86.6148 162.741 86.411 163.353 86.0036C163.935 85.5961 164.546 84.9995 165.186 84.2137C165.797 83.4278 166.452 82.4819 167.151 81.376C167.82 80.2409 168.519 78.9603 169.246 77.5342C170.556 75.0312 171.72 73.0376 172.739 71.5533C173.786 70.0689 174.747 68.963 175.62 68.2354C176.493 67.5078 177.323 67.0421 178.108 66.8384C178.923 66.6055 179.738 66.4891 180.553 66.4891C180.844 66.4891 181.033 66.6637 181.121 67.013C181.208 67.3331 181.193 67.7115 181.077 68.1481C180.961 68.5555 180.757 68.9339 180.466 69.2831C180.204 69.6033 179.855 69.7634 179.418 69.7634C179.098 69.7634 178.72 69.8507 178.283 70.0253C177.876 70.1708 177.395 70.5201 176.842 71.0731C176.318 71.5969 175.693 72.3973 174.965 73.4742C174.267 74.551 173.452 75.9917 172.52 77.7962C171.152 80.532 169.901 82.7148 168.766 84.3446C167.631 85.9454 166.598 87.1532 165.666 87.9681C164.735 88.7539 163.891 89.2633 163.134 89.4961C162.348 89.758 161.621 89.889 160.951 89.889Z" fill="#007AFF" />
  <path d="M146.992 89.889C146.002 89.889 145.143 89.6271 144.416 89.1032C143.688 88.5793 143.121 87.8372 142.713 86.8767C142.306 85.9163 142.102 84.7812 142.102 83.4715C142.102 82.1327 142.306 80.692 142.713 79.1495C143.121 77.607 143.732 76.0935 144.547 74.6092C145.362 73.1249 146.351 71.7716 147.515 70.5492C148.68 69.3268 150.018 68.3518 151.532 67.6242C153.074 66.8675 154.762 66.4891 156.596 66.4891C157.702 66.4891 158.895 66.6928 160.176 67.1003C161.456 67.4787 162.606 68.0171 163.625 68.7156L162.839 71.7279C161.413 70.9712 160.147 70.491 159.041 70.2872C157.935 70.0544 156.916 69.938 155.985 69.938C154.733 69.938 153.584 70.229 152.536 70.8111C151.517 71.3932 150.6 72.1645 149.786 73.1249C149 74.0562 148.33 75.104 147.777 76.2682C147.224 77.4032 146.802 78.5383 146.511 79.6734C146.22 80.8085 146.075 81.8417 146.075 82.773C146.075 83.5006 146.162 84.1409 146.337 84.6939C146.511 85.2469 146.759 85.6689 147.079 85.9599C147.428 86.251 147.821 86.3965 148.258 86.3965C149.334 86.3965 150.557 85.8144 151.925 84.6502C153.293 83.4569 154.748 81.7107 156.29 79.4114C157.862 77.1122 159.463 74.3182 161.093 71.0294L162.708 72.6447C160.816 76.5447 158.939 79.7752 157.076 82.3364C155.243 84.8685 153.482 86.7603 151.794 88.0118C150.106 89.2633 148.505 89.889 146.992 89.889ZM160.438 89.889C159.128 89.889 158.153 89.6416 157.513 89.1468C156.902 88.6812 156.509 88.0845 156.334 87.3569C156.189 86.6002 156.189 85.8144 156.334 84.9995C156.48 84.1554 156.683 83.3842 156.945 82.6857L161.835 68.0608C162.038 67.4787 162.271 67.1003 162.533 66.9257C162.824 66.7511 163.246 66.6637 163.799 66.6637C164.702 66.6637 165.269 66.8093 165.502 67.1003C165.764 67.3623 165.793 67.7843 165.589 68.3663L160.787 82.642C160.292 84.1555 160.059 85.2032 160.089 85.7853C160.147 86.3383 160.51 86.6148 161.18 86.6148C161.587 86.6148 161.893 86.7894 162.097 87.1386C162.3 87.4588 162.373 87.8372 162.315 88.2737C162.286 88.6812 162.111 89.045 161.791 89.3651C161.5 89.7144 161.049 89.889 160.438 89.889Z" fill="#007AFF" />
  <path d="M132.279 89.889C131.872 89.889 131.566 89.7144 131.363 89.3651C131.159 89.045 131.086 88.6812 131.144 88.2737C131.173 87.8372 131.348 87.4588 131.668 87.1386C131.988 86.7894 132.454 86.6148 133.065 86.6148C133.822 86.6148 134.622 86.3383 135.466 85.7853C136.31 85.2323 137.183 84.461 138.086 83.4715C138.959 82.4819 139.861 81.3178 140.792 79.979C141.724 78.6402 142.67 77.185 143.63 75.6133C143.863 75.235 144.183 75.0749 144.59 75.1331C144.998 75.1913 145.333 75.3805 145.595 75.7006C145.856 75.9917 145.871 76.3264 145.638 76.7047C144.387 78.8876 143.193 80.8084 142.058 82.4674C140.952 84.1263 139.876 85.5088 138.828 86.6148C137.751 87.6916 136.689 88.5065 135.641 89.0595C134.564 89.6125 133.443 89.889 132.279 89.889Z" fill="#007AFF" />
  <path d="M131.819 89.889C130.189 89.889 128.894 89.3942 127.933 88.4047C127.002 87.386 126.478 85.9745 126.361 84.17C126.245 82.3364 126.58 80.1973 127.366 77.7525L135.049 54.3963C136.126 50.9911 137.319 48.5172 138.629 46.9747C139.968 45.4321 141.568 44.6609 143.431 44.6609C144.362 44.6609 145.163 44.9082 145.832 45.403C146.531 45.8978 147.069 46.5817 147.448 47.4549C147.855 48.328 148.059 49.3612 148.059 50.5545C148.059 51.1075 147.87 51.5149 147.491 51.7769C147.142 52.0388 146.72 52.1698 146.225 52.1698C145.73 52.1698 145.294 52.0388 144.915 51.7769C144.566 51.5149 144.392 51.1075 144.392 50.5545C144.392 50.0597 144.348 49.6377 144.261 49.2885C144.173 48.9392 144.028 48.6627 143.824 48.459C143.62 48.2553 143.315 48.1534 142.907 48.1534C142.442 48.1534 141.99 48.3571 141.554 48.7646C141.146 49.1429 140.71 49.856 140.244 50.9037C139.779 51.9224 139.211 53.3776 138.542 55.2694L130.945 78.4947C130.363 80.27 130.043 81.7689 129.985 82.9913C129.956 84.2137 130.174 85.1304 130.64 85.7416C131.105 86.3237 131.775 86.6148 132.648 86.6148C133.055 86.6148 133.361 86.7894 133.565 87.1386C133.769 87.4588 133.841 87.8372 133.783 88.2737C133.725 88.6812 133.536 89.045 133.216 89.3651C132.895 89.7144 132.43 89.889 131.819 89.889Z" fill="#007AFF" />
  <path d="M111.693 89.889C110.441 89.889 109.35 89.6416 108.419 89.1468C107.487 88.6521 106.716 87.9681 106.105 87.095C105.465 86.1927 104.999 85.1741 104.708 84.039C104.388 82.904 104.228 81.7107 104.228 80.4592C104.228 78.7711 104.46 77.1122 104.926 75.4824C105.363 73.8234 106.018 72.3245 106.891 70.9857C107.764 69.6178 108.855 68.5264 110.165 67.7115C111.445 66.8966 112.915 66.4891 114.574 66.4891C114.836 66.4891 115.011 66.6637 115.098 67.013C115.156 67.3623 115.142 67.7697 115.054 68.2354C114.938 68.701 114.778 69.1085 114.574 69.4578C114.341 69.807 114.094 69.9816 113.832 69.9816C113.046 69.9816 112.348 70.2145 111.737 70.6801C111.125 71.1458 110.587 71.7716 110.121 72.5574C109.656 73.3141 109.277 74.1727 108.986 75.1331C108.666 76.0644 108.433 77.0103 108.288 77.9708C108.113 78.9312 108.026 79.8189 108.026 80.6338C108.026 81.4778 108.128 82.2491 108.331 82.9476C108.535 83.6461 108.855 84.2573 109.292 84.7812C109.699 85.3051 110.209 85.7125 110.82 86.0036C111.431 86.2655 112.144 86.3965 112.959 86.3965C114.443 86.3965 115.971 86.0909 117.543 85.4797C119.085 84.8685 120.642 84.0245 122.214 82.9476C123.786 81.8708 125.343 80.6193 126.885 79.1932C128.428 77.7379 129.912 76.1809 131.338 74.5219C132.764 72.8339 134.103 71.0876 135.355 69.2831C136.635 67.4787 137.799 65.6888 138.847 63.9134C139.895 62.138 140.797 60.4209 141.554 58.7619C142.311 57.103 142.893 55.575 143.3 54.178C143.737 52.7519 143.955 51.5295 143.955 50.5108C143.955 50.1907 144.13 49.9433 144.479 49.7687C144.857 49.5941 145.294 49.5067 145.789 49.5067C146.283 49.5067 146.705 49.5941 147.055 49.7687C147.433 49.9433 147.622 50.1907 147.622 50.5108C147.622 51.5295 147.404 52.781 146.967 54.2653C146.531 55.7205 145.905 57.3504 145.09 59.1548C144.275 60.9593 143.3 62.8365 142.165 64.7865C141.03 66.7365 139.749 68.7156 138.323 70.7238C136.926 72.7029 135.413 74.6238 133.783 76.4865C132.153 78.3491 130.451 80.0954 128.675 81.7252C126.9 83.3551 125.066 84.7812 123.175 86.0036C121.312 87.226 119.42 88.1864 117.499 88.8849C115.549 89.5543 113.614 89.889 111.693 89.889Z" fill="#007AFF" />
  <path d="M104.955 82.904C105.479 82.5838 105.988 82.2491 106.483 81.8999C106.978 81.5506 107.473 81.2014 107.967 80.8521C109.277 79.8917 110.456 78.9021 111.504 77.8835C112.551 76.8648 113.381 75.8607 113.992 74.8712C114.632 73.8816 114.952 72.9648 114.952 72.1208C114.952 71.4514 114.807 70.9275 114.516 70.5492C114.225 70.1708 113.788 69.9816 113.206 69.9816C112.799 69.9816 112.493 69.807 112.289 69.4578C112.115 69.1085 112.057 68.701 112.115 68.2354C112.173 67.7697 112.362 67.3623 112.682 67.013C113.032 66.6637 113.512 66.4891 114.123 66.4891C114.996 66.4891 115.796 66.6783 116.524 67.0567C117.252 67.4059 117.819 67.9298 118.227 68.6283C118.663 69.2977 118.882 70.1126 118.882 71.0731C118.882 72.3827 118.46 73.7652 117.615 75.2204C116.801 76.6465 115.709 78.0726 114.341 79.4988C112.973 80.8958 111.445 82.2055 109.757 83.4278C109.204 83.8062 108.637 84.1991 108.055 84.6066C107.473 84.9849 106.891 85.3487 106.308 85.698L104.955 82.904Z" fill="#007AFF" />
  <path d="M93.4298 89.889C92.0037 89.889 90.7667 89.7289 89.719 89.4088C88.6712 89.0886 87.7835 88.6375 87.0559 88.0554C86.2992 87.4442 85.7026 86.7457 85.266 85.9599C84.8004 85.1741 84.4656 84.3155 84.2619 83.3842C84.0582 82.4529 83.9563 81.4779 83.9563 80.4592C83.9563 79.295 84.0873 78.0726 84.3492 76.7921C84.6112 75.4824 85.0041 74.2309 85.528 73.0376C86.0518 71.8152 86.7212 70.7092 87.5362 69.7197C88.3511 68.7301 89.3261 67.9443 90.4611 67.3622C91.5962 66.7802 92.8768 66.4891 94.3029 66.4891C94.5649 66.4891 94.7395 66.6637 94.8268 67.013C94.885 67.3623 94.8705 67.7697 94.7831 68.2354C94.6667 68.701 94.5066 69.1085 94.3029 69.4578C94.0701 69.807 93.8227 69.9816 93.5608 69.9816C92.5712 69.9816 91.7272 70.3454 91.0287 71.0731C90.3011 71.7716 89.7044 72.6738 89.2388 73.7798C88.7731 74.8857 88.4238 76.0353 88.191 77.2286C87.9582 78.3928 87.8418 79.4406 87.8418 80.3719C87.8418 81.4196 87.9873 82.3364 88.2783 83.1222C88.5403 83.9081 88.9477 84.5775 89.5007 85.1304C90.0246 85.6543 90.6794 86.0472 91.4652 86.3092C92.2511 86.5711 93.1533 86.7021 94.172 86.7021C95.2488 86.7021 96.3693 86.5275 97.5335 86.1782C98.6977 85.8289 99.8618 85.3778 101.026 84.8248C102.19 84.2428 103.296 83.6025 104.344 82.904C104.519 82.7875 104.708 82.8458 104.911 83.0786C105.144 83.3114 105.363 83.617 105.566 83.9954C105.77 84.3446 105.886 84.6939 105.916 85.0431C105.974 85.3633 105.916 85.5816 105.741 85.698C104.431 86.542 103.078 87.2842 101.681 87.9245C100.284 88.5648 98.8868 89.045 97.4898 89.3651C96.0928 89.7144 94.7395 89.889 93.4298 89.889Z" fill="#007AFF" />
  <path d="M84.6838 82.904C85.2077 82.5838 85.717 82.2491 86.2118 81.8999C86.7066 81.5506 87.2013 81.2014 87.6961 80.8521C89.0058 79.8917 90.1845 78.9021 91.2323 77.8835C92.2801 76.8648 93.1095 75.8607 93.7207 74.8712C94.361 73.8816 94.6812 72.9648 94.6812 72.1208C94.6812 71.4514 94.5356 70.9275 94.2446 70.5492C93.9536 70.1708 93.517 69.9816 92.9349 69.9816C92.5274 69.9816 92.2218 69.807 92.0181 69.4578C91.8435 69.1085 91.7853 68.701 91.8435 68.2354C91.9017 67.7697 92.0909 67.3623 92.411 67.013C92.7603 66.6637 93.2405 66.4891 93.8517 66.4891C94.7248 66.4891 95.5252 66.6783 96.2528 67.0567C96.9804 67.4059 97.5479 67.9298 97.9554 68.6283C98.392 69.2977 98.6102 70.1126 98.6102 71.0731C98.6102 72.3827 98.1882 73.7652 97.3442 75.2204C96.5293 76.6465 95.4379 78.0726 94.07 79.4988C92.7021 80.8958 91.1741 82.2055 89.486 83.4278C88.9331 83.8062 88.3655 84.1991 87.7834 84.6066C87.2013 84.9849 86.6193 85.3487 86.0372 85.698L84.6838 82.904Z" fill="#007AFF" />
  <path d="M73.6397 89.889C73.0868 89.889 72.723 89.7144 72.5483 89.3651C72.3446 89.045 72.3009 88.6812 72.4174 88.2737C72.5047 87.8372 72.723 87.4588 73.0722 87.1386C73.4215 86.7894 73.8726 86.6148 74.4256 86.6148C75.6188 86.6148 77.045 86.2801 78.7039 85.6107C80.3337 84.9413 82.1673 83.9372 84.2046 82.5984C84.5539 82.3655 84.874 82.3219 85.1651 82.4674C85.4561 82.6129 85.6744 82.8603 85.8199 83.2096C85.9945 83.5588 86.0528 83.9226 85.9945 84.301C85.9363 84.6793 85.7472 84.9849 85.427 85.2178C83.7099 86.3528 82.1237 87.2696 80.6684 87.9681C79.1841 88.6375 77.8599 89.1177 76.6957 89.4088C75.5024 89.7289 74.4838 89.889 73.6397 89.889Z" fill="#007AFF" />
  <path d="M73.1865 89.889C71.9059 89.889 70.96 89.6562 70.3488 89.1905C69.7376 88.7248 69.3447 88.1282 69.1701 87.4006C68.9954 86.673 68.9663 85.9308 69.0828 85.1741C69.2283 84.3883 69.4029 83.7043 69.6066 83.1222C69.7231 82.773 69.9413 82.2055 70.2615 81.4196C70.5816 80.6338 70.9454 79.7461 71.3529 78.7566C71.7604 77.7379 72.1533 76.7047 72.5316 75.657C72.9391 74.6092 73.2738 73.6488 73.5357 72.7757C73.7686 71.9025 73.8122 71.3059 73.6667 70.9857C73.5503 70.6365 73.1865 70.4619 72.5753 70.4619C71.9059 70.4619 71.1928 70.6074 70.4361 70.8984C69.6794 71.1604 68.8936 71.4369 68.0787 71.7279C67.2637 71.9898 66.4052 72.1208 65.5029 72.1208C64.979 72.1208 64.5279 71.9025 64.1496 71.466C63.7712 71.0294 63.4656 70.4764 63.2328 69.807C63.0291 69.1085 62.9272 68.3809 62.9272 67.6242C62.9272 67.013 63.0291 66.4455 63.2328 65.9216C63.4365 65.3686 63.7567 64.9175 64.1932 64.5682C64.6589 64.219 65.241 64.0444 65.9395 64.0444C66.5216 64.0444 66.9873 64.2335 67.3365 64.6119C67.6858 64.9902 67.8604 65.4705 67.8604 66.0526C67.8604 66.4309 67.8022 66.8529 67.6858 67.3186C67.5984 67.7551 67.3947 68.2063 67.0746 68.6719C67.3365 68.6719 67.7149 68.5846 68.2096 68.41C68.7335 68.2063 69.3301 67.9734 69.9995 67.7115C70.6981 67.4496 71.4257 67.2313 72.1824 67.0567C72.9682 66.8529 73.7395 66.7511 74.4962 66.7511C75.3984 66.7511 76.1115 66.9693 76.6353 67.4059C77.1883 67.8425 77.523 68.5119 77.6394 69.4141C77.7559 70.2872 77.6249 71.4369 77.2465 72.863C77.0428 73.6779 76.7372 74.6238 76.3297 75.7006C75.9514 76.7484 75.5439 77.8107 75.1074 78.8876C74.6999 79.9353 74.3215 80.8958 73.9723 81.7689C73.6521 82.6129 73.4339 83.2387 73.3174 83.6461C73.0555 84.5192 72.9391 85.2323 72.9682 85.7853C72.9973 86.3383 73.3465 86.6148 74.0159 86.6148C74.4234 86.6148 74.7144 86.7894 74.8891 87.1386C75.0928 87.4588 75.1656 87.8372 75.1074 88.2737C75.0783 88.6812 74.9036 89.045 74.5835 89.3651C74.2633 89.7144 73.7977 89.889 73.1865 89.889Z" fill="#007AFF" />
  <path d="M50.8364 87.5752C49.7013 87.5752 48.6827 87.2987 47.7804 86.7457C46.8782 86.1928 46.0924 85.2178 45.423 83.8208C44.7245 82.3946 44.0987 80.4155 43.5458 77.8835C43.5167 77.6797 43.5749 77.3887 43.7204 77.0103C43.8368 76.6029 43.9823 76.2682 44.1569 76.0062C44.3316 75.7152 44.4334 75.6715 44.4625 75.8753C44.7536 77.4469 45.1174 78.7857 45.554 79.8917C45.9905 80.9685 46.4853 81.8271 47.0383 82.4674C47.5913 83.1077 48.1733 83.5734 48.7845 83.8644C49.3957 84.1555 50.0215 84.301 50.6618 84.301C51.3894 84.301 52.1752 84.1118 53.0192 83.7334C53.8632 83.326 54.7364 82.7293 55.6386 81.9435C56.5699 81.1286 57.5158 80.1245 58.4763 78.9312C59.4658 77.7379 60.4554 76.3409 61.4449 74.7402C62.4345 73.1395 63.424 71.3495 64.4136 69.3705C64.7337 68.7302 65.0975 68.3518 65.505 68.2354C65.9124 68.119 66.2908 68.1626 66.64 68.3663C66.9893 68.5701 67.2658 68.832 67.4695 69.1522C67.6732 69.4723 67.7169 69.7634 67.6005 70.0253C66.2617 73.0813 64.8356 75.7152 63.3222 77.9271C61.8378 80.1391 60.339 81.9581 58.8255 83.3842C57.3412 84.8103 55.9151 85.8726 54.5472 86.5711C53.1793 87.2405 51.9424 87.5752 50.8364 87.5752Z" fill="#007AFF" />
  <path d="M27.8066 89.889C27.2536 89.889 26.8898 89.7144 26.7151 89.3651C26.5405 89.045 26.526 88.6812 26.6715 88.2737C26.7879 87.8372 27.0207 87.4588 27.37 87.1386C27.6901 86.7894 28.0831 86.6148 28.5487 86.6148C29.1017 86.6148 29.7566 86.4838 30.5133 86.2219C31.27 85.9308 32.0995 85.5379 33.0017 85.0431C33.9039 84.5193 34.8644 83.8935 35.883 83.1659C36.9017 82.4092 37.9349 81.5797 38.9826 80.6775C40.0595 79.7752 41.1363 78.8148 42.2132 77.7962C43.5811 76.4865 44.9054 75.0749 46.186 73.5615C47.4665 72.048 48.7035 70.491 49.8968 68.8902C51.09 67.2604 52.1814 65.6305 53.171 64.0007C54.1896 62.3418 55.0628 60.7265 55.7904 59.1548C56.5471 57.5541 57.1292 56.0261 57.5366 54.5709C57.9441 53.1157 58.1478 51.7769 58.1478 50.5545C58.1478 49.8269 58.3225 49.3176 58.6717 49.0265C59.0501 48.7064 59.4866 48.5754 59.9814 48.6336C60.4762 48.6918 60.8982 48.8955 61.2474 49.2448C61.6258 49.5649 61.815 50.0015 61.815 50.5545C61.815 51.8351 61.5821 53.2466 61.1165 54.7892C60.6799 56.3317 60.0542 57.9615 59.2392 59.6787C58.4243 61.3668 57.4639 63.0985 56.3579 64.8738C55.252 66.6492 54.0441 68.41 52.7344 70.1563C51.4247 71.9025 50.0277 73.6051 48.5434 75.2641C47.0882 76.8939 45.6039 78.4364 44.0904 79.8917C42.839 81.0558 41.5875 82.1472 40.336 83.1659C39.1136 84.1846 37.9058 85.1013 36.7125 85.9163C35.5192 86.7312 34.3841 87.4442 33.3073 88.0554C32.2013 88.6375 31.1827 89.0886 30.2513 89.4088C29.32 89.7289 28.5051 89.889 27.8066 89.889ZM36.7561 111.717C35.9703 111.717 35.2427 111.528 34.5733 111.15C33.9039 110.8 33.38 110.204 33.0017 109.36C32.6233 108.516 32.4778 107.381 32.5651 105.955C32.6233 104.528 33.0162 102.739 33.7438 100.585L48.8053 54.3963C49.8822 50.9911 51.0755 48.5172 52.3852 46.9747C53.724 45.4321 55.3247 44.6609 57.1874 44.6609C58.1187 44.6609 58.9191 44.9082 59.5885 45.403C60.287 45.8978 60.8254 46.5817 61.2038 47.4549C61.6112 48.328 61.815 49.3612 61.815 50.5545C61.815 51.1075 61.6258 51.5149 61.2474 51.7769C60.8982 52.0388 60.4762 52.1698 59.9814 52.1698C59.4866 52.1698 59.0501 52.0388 58.6717 51.7769C58.3225 51.5149 58.1478 51.1075 58.1478 50.5545C58.1478 50.0597 58.1042 49.6377 58.0169 49.2885C57.9295 48.9392 57.784 48.6627 57.5803 48.459C57.3766 48.2553 57.071 48.1534 56.6635 48.1534C56.1978 48.1534 55.7467 48.3571 55.3102 48.7646C54.9027 49.1429 54.4516 49.856 53.9568 50.9037C53.4911 51.9224 52.9382 53.3776 52.2979 55.2694L44.7889 78.582C45.1673 79.8335 45.4583 81.1868 45.6621 82.642C45.8949 84.0972 46.055 85.6107 46.1423 87.1823C46.2296 88.7248 46.2442 90.2819 46.186 91.8535C46.1277 93.4543 46.0113 95.0259 45.8367 96.5685C45.6912 98.1401 45.4583 99.6244 45.1382 101.021C44.8471 102.418 44.4979 103.728 44.0904 104.951C43.6539 106.231 43.1009 107.381 42.4315 108.399C41.7621 109.447 40.9617 110.262 40.0304 110.844C39.1282 111.426 38.0367 111.717 36.7561 111.717ZM37.1927 108.225C37.4838 108.225 37.7602 108.137 38.0222 107.963C38.2841 107.817 38.5315 107.584 38.7643 107.264C39.0263 106.973 39.2737 106.609 39.5065 106.173C39.7393 105.736 39.9722 105.242 40.205 104.689C40.5543 103.786 40.8744 102.811 41.1655 101.764C41.4565 100.745 41.7184 99.6681 41.9513 98.533C42.1841 97.3979 42.3733 96.2483 42.5188 95.0841C42.6934 93.92 42.8098 92.7558 42.8681 91.5916C42.9263 90.4274 42.9408 89.2924 42.9117 88.1864C42.9117 87.0513 42.839 86.0036 42.6934 85.0431L37.28 101.895C36.5524 104.165 36.1886 105.78 36.1886 106.74C36.2177 107.73 36.5524 108.225 37.1927 108.225Z" fill="#007AFF" />
  <path d="M241.586 80.9662C241.951 80.8359 242.328 80.8309 242.694 80.9222L242.914 80.9847C243.421 81.1468 243.863 81.4189 244.218 81.8099L244.355 81.9701C244.645 82.3344 244.839 82.7496 244.891 83.2123C245.002 83.8806 244.703 84.4971 244.294 85.0082C243.152 86.4507 241.96 87.6023 240.715 88.4427L240.704 88.4496C239.48 89.2456 238.226 89.8215 236.945 90.1654L236.944 90.1644C235.714 90.502 234.468 90.6722 233.205 90.6722C232.043 90.6722 230.968 90.4833 229.99 90.0922C229.04 89.7412 228.192 89.2457 227.453 88.6029L227.447 88.597L227.44 88.5912C226.734 87.9495 226.143 87.1976 225.666 86.3402L225.659 86.3256L225.651 86.3099C225.354 85.7173 225.103 85.0971 224.895 84.4506C225.118 84.2998 225.343 84.145 225.57 83.9877C225.779 84.6791 226.04 85.3366 226.351 85.9599C226.788 86.7457 227.326 87.4297 227.967 88.0118C228.636 88.5939 229.407 89.045 230.28 89.3651C231.044 89.6706 231.886 89.843 232.806 89.8812L233.205 89.889C234.399 89.889 235.577 89.7289 236.741 89.4088C237.786 89.1287 238.818 88.6811 239.84 88.0668L240.278 87.7935C241.442 87.0077 242.577 85.9163 243.683 84.5193C244.032 84.0827 244.178 83.6898 244.119 83.3405C244.094 83.0352 243.968 82.7405 243.743 82.4574L243.639 82.3364C243.384 82.0563 243.063 81.854 242.674 81.7299L242.504 81.6816C242.038 81.5652 241.631 81.7107 241.282 82.1181C240.583 82.8749 239.827 83.5879 239.012 84.2573L238.715 84.4916C238.021 85.0263 237.305 85.4724 236.567 85.8289L236.26 85.9623C235.544 86.2518 234.817 86.3965 234.078 86.3965L234.079 85.6136C234.799 85.6136 235.513 85.4525 236.229 85.1215C237.013 84.7429 237.776 84.2547 238.517 83.6507C239.304 83.0042 240.034 82.3162 240.706 81.5873C240.945 81.3145 241.236 81.0913 241.586 80.9662ZM240.19 70.9857C240.19 70.2218 240.034 69.5361 239.722 68.9281L239.579 68.6719C239.223 68.0863 238.744 67.6123 238.142 67.2494L237.877 67.1003C237.265 66.7439 236.565 66.543 235.776 66.4984L235.432 66.4891C233.627 66.4891 232.07 66.9402 230.761 67.8425L230.518 68.0091C229.317 68.8584 228.321 69.9379 227.53 71.2477L227.234 71.7767C226.565 73.0245 226.053 74.362 225.696 75.7879L225.553 76.3959C225.241 77.806 225.085 79.1605 225.085 80.4592C225.085 80.5454 225.087 80.6314 225.088 80.7172C224.831 80.8963 224.575 81.071 224.323 81.2416C224.309 80.9826 224.302 80.7218 224.302 80.4593C224.302 78.9032 224.516 77.282 224.937 75.598L225.106 74.9662C225.524 73.5052 226.107 72.1333 226.854 70.8529L226.86 70.8431L227.032 70.5658C227.848 69.2903 228.86 68.2231 230.065 67.3705L230.327 67.1908C231.782 66.1915 233.496 65.7064 235.432 65.7064C236.466 65.7065 237.409 65.9317 238.237 66.4056C239.085 66.8467 239.762 67.4677 240.247 68.265C240.738 69.0707 240.973 69.9859 240.973 70.9857C240.973 72.4563 240.469 73.8642 239.518 75.1957C238.625 76.457 237.467 77.6568 236.055 78.7982L236.054 78.7972C234.687 79.9264 233.217 80.9665 231.646 81.9154L231.645 81.9144C231.117 82.239 230.599 82.548 230.091 82.8451C230.239 83.3084 230.435 83.7209 230.672 84.0873C230.999 84.5485 231.431 84.9249 231.983 85.2152C232.519 85.469 233.208 85.6136 234.079 85.6136L234.078 86.3965L233.725 86.389C232.916 86.354 232.219 86.1964 231.634 85.9163C230.964 85.567 230.426 85.1013 230.018 84.5193C229.64 83.9372 229.364 83.2678 229.189 82.5111C229.186 82.4978 229.183 82.4844 229.18 82.4711C229.848 82.0875 230.535 81.6792 231.241 81.245C232.783 80.3137 234.224 79.295 235.563 78.1891C236.931 77.0831 238.037 75.9335 238.881 74.7402C239.699 73.5944 240.134 72.4229 240.185 71.2259L240.19 70.9857ZM235.478 71.684C235.478 71.4169 235.402 71.1886 235.242 70.975L235.229 70.9584L235.217 70.9398C235.189 70.8968 235.079 70.765 234.602 70.765C233.892 70.7651 233.273 71.0219 232.711 71.5834C232.09 72.2045 231.543 73.0103 231.079 74.0189C230.637 75.0152 230.291 76.0692 230.04 77.182C230.03 77.2324 230.021 77.2826 230.011 77.3324C230.67 76.8904 231.315 76.4319 231.945 75.9515L232.337 75.6449C233.233 74.9309 233.977 74.2257 234.577 73.5306C235.244 72.7563 235.478 72.1464 235.478 71.684ZM236.257 71.8216C236.215 72.5104 235.852 73.2507 235.17 74.0417L234.888 74.3578C234.21 75.0964 233.387 75.8352 232.419 76.5738L231.581 77.1957C230.74 77.8037 229.874 78.379 228.984 78.9222C229.04 78.3266 229.137 77.6893 229.276 77.0103C229.538 75.8462 229.902 74.7402 230.368 73.6924C230.801 72.7501 231.312 71.9528 231.901 71.3002L232.158 71.0294C232.856 70.3309 233.671 69.9816 234.602 69.9816L234.823 69.9896C235.316 70.0278 235.665 70.2 235.868 70.5055C236.13 70.8548 236.261 71.2477 236.261 71.6842L236.257 71.8216Z" fill="#007AFF" />
  <path d="M225.57 83.9877C225.649 84.2498 225.736 84.5068 225.83 84.7591C224.091 85.9568 222.453 86.9682 220.913 87.7865L220.904 87.7914L220.903 87.7904C219.008 88.7671 217.244 89.4874 215.611 89.9418L215.612 89.9427C213.955 90.4246 212.397 90.6722 210.941 90.6722C210.249 90.6722 209.572 90.45 209.171 89.8265C209.596 89.8663 210.038 89.889 210.497 89.889C210.563 89.889 210.626 89.8825 210.687 89.8734C210.705 89.8755 210.723 89.8796 210.742 89.8812L210.94 89.889C212.308 89.889 213.793 89.6562 215.393 89.1905C216.769 88.8085 218.255 88.2258 219.853 87.4427L220.545 87.095C222.108 86.2648 223.782 85.2275 225.57 83.9877ZM225.102 79.7552C225.092 79.9917 225.085 80.2263 225.085 80.4592C225.085 80.5454 225.087 80.6314 225.088 80.7172C223.274 81.9783 221.585 83.0283 220.021 83.8644L219.384 84.1918C217.913 84.9303 216.554 85.4906 215.306 85.8726L214.777 86.0257C213.554 86.36 212.421 86.5274 211.377 86.5275L211.175 86.5355C211.156 86.5371 211.137 86.5403 211.119 86.5424C211.06 86.5335 210.999 86.5275 210.934 86.5275C210.45 86.5275 210 86.4927 209.583 86.4252C210.066 85.9546 210.69 85.7445 211.377 85.7445C212.476 85.7445 213.707 85.5435 215.077 85.1244L215.597 84.9564C216.829 84.5397 218.181 83.9465 219.657 83.1713C221.102 82.3985 222.664 81.4366 224.343 80.2826L225.071 79.7757C225.081 79.7685 225.092 79.7624 225.102 79.7552Z" fill="#007AFF" />
  <path d="M201.514 81.4066C201.606 83.8244 202.359 85.8224 203.774 87.4006C205.193 88.9558 207.251 89.782 209.949 89.8793L210.497 89.889C210.563 89.889 210.626 89.8825 210.687 89.8734C210.767 89.8825 210.851 89.889 210.94 89.889C211.312 89.889 211.693 89.8698 212.082 89.8353C212.076 89.8435 212.071 89.8526 212.064 89.8607L212.063 89.8597C211.691 90.3797 211.15 90.6721 210.497 90.6722C207.383 90.6722 204.901 89.7976 203.196 87.9281L203.191 87.9232C201.846 86.4231 201.061 84.5898 200.81 82.4593C201.042 82.1195 201.277 81.7684 201.514 81.4066ZM205.433 81.0704C205.433 79.9644 205.608 78.7857 205.957 77.5342C206.335 76.2536 206.888 75.0458 207.616 73.9107C208.278 72.892 209.074 72.0402 210.003 71.3558L210.41 71.0731C211.516 70.3454 212.796 69.9816 214.252 69.9816L214.731 69.9896C215.823 70.0246 216.725 70.1817 217.438 70.4619C218.253 70.782 218.937 71.2477 219.49 71.8589C219.898 72.2954 220.291 72.4992 220.669 72.4701L220.811 72.4427C221.095 72.3773 221.379 72.2466 221.663 72.0502L221.804 71.9462C222.153 71.626 222.386 71.2913 222.503 70.9421C222.648 70.5637 222.503 70.1126 222.066 69.5887C221.302 68.6976 220.416 67.9952 219.407 67.4828L218.966 67.2749C217.948 66.8167 216.718 66.5587 215.276 66.5013L214.644 66.4891C212.52 66.4891 210.628 66.9402 208.969 67.8425C207.339 68.7447 205.971 69.9234 204.865 71.3786L204.463 71.93C203.713 73.0009 203.099 74.1326 202.621 75.3246C202.532 75.4001 202.45 75.4954 202.377 75.6133C201.944 76.3213 201.513 77.0047 201.086 77.6654C201.219 77.0647 201.386 76.458 201.59 75.8461L201.593 75.8382L201.834 75.181C202.428 73.6606 203.231 72.2345 204.242 70.9047L204.465 70.6185C205.598 69.206 206.975 68.0518 208.59 67.1576L208.595 67.1547L208.933 66.9779C210.636 66.1246 212.546 65.7064 214.645 65.7064C216.433 65.7065 217.988 65.978 219.281 66.558C220.422 67.059 221.429 67.7674 222.297 68.6771L222.661 69.0795L222.667 69.0873L222.845 69.3158C223.235 69.8563 223.489 70.5106 223.245 71.1888L223.246 71.1898C223.244 71.1938 223.242 71.1975 223.241 71.2015C223.238 71.2085 223.236 71.216 223.234 71.223L223.233 71.222C223.061 71.715 222.744 72.1472 222.333 72.5238L222.308 72.5463L222.282 72.5668C221.824 72.9186 221.326 73.1608 220.788 73.2435L220.759 73.2484L220.729 73.2504C220.004 73.3061 219.395 72.9031 218.918 72.3929L218.91 72.3841C218.501 71.9328 218.005 71.5712 217.413 71.3011L217.152 71.1908C216.462 70.9197 215.507 70.765 214.251 70.765C213.016 70.765 211.947 71.0522 211.023 71.6117L210.84 71.7269C209.83 72.3914 208.974 73.2563 208.274 74.3324L208.275 74.3334C207.589 75.4032 207.067 76.5391 206.71 77.7435L206.711 77.7445C206.378 78.9391 206.216 80.047 206.216 81.0707C206.216 81.895 206.369 82.6752 206.673 83.4174C206.985 84.1113 207.475 84.6763 208.163 85.1205C208.817 85.5148 209.722 85.7445 210.934 85.7445C211.249 85.7445 211.574 85.8128 211.865 85.9965C212.067 86.1245 212.224 86.292 212.344 86.4808C212.014 86.5111 211.691 86.5274 211.377 86.5275C211.288 86.5275 211.202 86.5333 211.119 86.5424C211.106 86.5404 211.093 86.537 211.08 86.5355L210.934 86.5275C209.706 86.5275 208.696 86.3101 207.903 85.8754L207.747 85.7853C206.932 85.2614 206.335 84.5775 205.957 83.7334C205.651 82.9948 205.479 82.2228 205.441 81.4174L205.433 81.0704Z" fill="#007AFF" />
  <path d="M201.514 81.4066C201.53 81.8342 201.569 82.2484 201.626 82.6498C201.568 82.7367 201.51 82.8239 201.452 82.9095C200.33 84.5914 199.227 86.0091 198.143 87.1537L198.128 87.1683C197.011 88.2857 195.887 89.154 194.753 89.7523L194.746 89.7562C193.563 90.3636 192.32 90.6722 191.027 90.6722C190.363 90.6722 189.812 90.3691 189.464 89.809C189.808 89.8596 190.185 89.889 190.594 89.889C190.684 89.889 190.77 89.8838 190.853 89.8763C190.861 89.8775 190.87 89.8802 190.878 89.8812L191.026 89.889C192.045 89.8889 193.03 89.6775 193.982 89.2543L194.388 89.0595C195.305 88.5757 196.232 87.8911 197.171 87.0062L197.575 86.6148C198.623 85.5088 199.699 84.1263 200.805 82.4674C201.039 82.1252 201.275 81.7711 201.514 81.4066ZM203.052 74.3431C202.898 74.6656 202.755 74.9927 202.621 75.3246C202.532 75.4001 202.45 75.4954 202.377 75.6133C201.417 77.185 200.471 78.6402 199.539 79.979L198.846 80.9506C198.159 81.889 197.487 82.7294 196.833 83.4715L196.496 83.8324C195.712 84.6505 194.952 85.3015 194.213 85.7853L193.899 85.9799C193.17 86.4032 192.474 86.6148 191.812 86.6148L191.589 86.6234C191.585 86.6237 191.581 86.6241 191.578 86.6244C191.528 86.6184 191.477 86.6148 191.424 86.6148C190.909 86.6147 190.569 86.4639 190.402 86.1634C190.818 85.9313 191.301 85.8314 191.812 85.8314C192.373 85.8314 193.026 85.6269 193.785 85.1302L194.077 84.93C194.765 84.4386 195.492 83.7801 196.254 82.9437C197.101 81.9833 197.982 80.8467 198.897 79.5316L199.59 78.516C200.287 77.4785 200.994 76.3755 201.709 75.2054L201.71 75.2025L201.853 74.9974C202.008 74.7997 202.203 74.6287 202.442 74.5091C202.639 74.4106 202.845 74.3581 203.052 74.3431Z" fill="#007AFF" />
  <path d="M188.966 69.9906C189.619 70.032 190.059 70.2182 190.289 70.5492C190.58 70.9275 190.681 71.4369 190.594 72.0771L190.568 72.3099C190.495 72.8606 190.343 73.4669 190.114 74.129L187.145 82.6857C186.912 83.3842 186.723 84.1554 186.578 84.9995C186.432 85.8144 186.432 86.6002 186.578 87.3569C186.723 88.0845 187.102 88.6812 187.713 89.1468C188.273 89.5797 189.079 89.8232 190.129 89.8773L190.594 89.889C190.684 89.889 190.77 89.8838 190.853 89.8763C190.909 89.8839 190.966 89.889 191.026 89.889C191.615 89.889 192.192 89.8174 192.758 89.6761C192.699 89.7506 192.636 89.8233 192.568 89.8929L192.569 89.8939C192.06 90.4488 191.357 90.6722 190.594 90.6722C189.235 90.6722 188.071 90.4126 187.234 89.766C186.48 89.1898 185.994 88.4297 185.81 87.5101L185.809 87.5052C185.644 86.6475 185.646 85.764 185.807 84.8617C185.958 83.9867 186.156 83.1779 186.403 82.4379L186.406 82.4291L189.374 73.8724L189.54 73.3539C189.687 72.8529 189.777 72.4034 189.815 72.0033L189.816 71.9867L189.819 71.9711C189.888 71.4631 189.792 71.1873 189.668 71.0267L189.656 71.0111L189.645 70.9945C189.612 70.9475 189.424 70.765 188.673 70.765C187.939 70.765 187.021 71.0908 185.895 71.8871C184.804 72.6796 183.646 73.8019 182.427 75.2748L182.428 75.2757C181.236 76.752 180.036 78.5229 178.829 80.5922L178.826 80.5961C177.629 82.619 176.515 84.8604 175.483 87.3216L174.968 88.9086L174.966 88.9076C174.794 89.4577 174.455 89.9036 173.943 90.183L173.942 90.182C173.453 90.49 172.802 90.5843 172.127 90.5843C171.543 90.5843 170.986 90.456 170.467 90.1966L170.457 90.1908L170.447 90.1859C170.088 89.9929 169.814 89.6815 169.702 89.2631C169.597 88.876 169.654 88.4801 169.766 88.1254L169.767 88.1205L173.974 75.1117C174.327 74.4953 174.657 73.9491 174.965 73.4742C175.198 73.1293 175.421 72.8129 175.633 72.5248L170.512 88.361L170.459 88.5599C170.367 89.0057 170.487 89.3178 170.818 89.4961C171.174 89.6744 171.553 89.775 171.954 89.7972L172.127 89.8017C172.797 89.8017 173.277 89.6998 173.568 89.4961C173.888 89.3215 174.107 89.045 174.223 88.6666L174.747 87.0513C175.664 84.8614 176.647 82.8385 177.698 80.9828L178.152 80.1973C179.374 78.1017 180.597 76.2973 181.819 74.7839C183.071 73.2704 184.279 72.0917 185.443 71.2477C186.636 70.4037 187.713 69.9816 188.673 69.9816L188.966 69.9906ZM190.114 65.7064C191.571 65.7064 192.814 66.0707 193.73 66.9056C194.658 67.7221 195.121 68.9042 195.217 70.3216L195.231 70.5912C195.275 71.9588 194.964 73.5642 194.348 75.3841L194.347 75.3871L191.771 82.8959V82.8978C191.514 83.6402 191.33 84.2536 191.214 84.7425C191.101 85.2219 191.066 85.5372 191.071 85.7211C191.075 85.7509 191.08 85.7682 191.083 85.7767C191.104 85.7884 191.193 85.8314 191.423 85.8314C191.74 85.8314 192.06 85.9009 192.35 86.0746C192.525 86.1797 192.671 86.3126 192.791 86.4642C192.457 86.5625 192.131 86.6148 191.812 86.6148C191.731 86.6148 191.653 86.6183 191.578 86.6244C191.575 86.6241 191.573 86.6237 191.571 86.6234L191.424 86.6148C190.725 86.6148 190.347 86.3383 190.289 85.7853C190.263 85.276 190.449 84.4102 190.847 83.1879L191.031 82.642L193.606 75.1331C194.207 73.3597 194.487 71.8548 194.448 70.6185L194.436 70.3745C194.354 69.1739 193.991 68.2543 193.346 67.6166L193.214 67.4932C192.531 66.8657 191.581 66.5328 190.362 66.4935L190.114 66.4891C189.124 66.4891 188.135 66.6783 187.145 67.0567L186.775 67.2074C185.912 67.5798 185.061 68.0972 184.22 68.7593L183.86 69.0404C183.019 69.7152 182.179 70.5238 181.339 71.466C180.408 72.5137 179.491 73.7361 178.589 75.1331L179.462 72.5137C179.593 72.0772 179.707 71.6078 179.805 71.1058L179.898 70.5928C179.952 70.2698 179.98 69.9561 179.984 69.6517C180.168 69.5719 180.329 69.4501 180.466 69.2831C180.565 69.1645 180.652 69.0417 180.731 68.9164C180.785 69.4067 180.779 69.9121 180.713 70.431L180.67 70.7211C180.648 70.8577 180.622 70.9925 180.597 71.1254C180.649 71.0653 180.701 71.0047 180.753 70.9457L180.754 70.9447L181.125 70.5375C181.992 69.6054 182.866 68.8032 183.747 68.1351C184.757 67.3414 185.796 66.7345 186.866 66.3256L187.268 66.181C188.209 65.8662 189.158 65.7064 190.114 65.7064ZM176.58 65.7064C177.726 65.7064 178.733 65.9168 179.436 66.4955C179.461 66.5141 179.483 66.535 179.507 66.5541C179.125 66.6008 178.743 66.672 178.361 66.7699C177.985 66.619 177.522 66.5264 176.971 66.4984L176.58 66.4891C176.057 66.4891 175.635 66.6637 175.314 67.013L175.2 67.1361C174.945 67.4288 174.78 67.7663 174.703 68.1481C174.63 68.4891 174.63 68.8094 174.7 69.1097C174.509 69.3114 174.314 69.5287 174.116 69.7621C174.086 69.7112 174.058 69.6597 174.034 69.6068L174.017 69.5697L174.004 69.5306C173.859 69.0942 173.831 68.64 173.902 68.181L173.938 67.9838C174.056 67.405 174.329 66.8976 174.745 66.4759C175.229 65.9523 175.867 65.7064 176.58 65.7064Z" fill="#007AFF" />
  <path d="M174.695 75.4271C174.243 76.2119 173.75 77.1211 173.216 78.1556C171.841 80.905 170.572 83.1216 169.409 84.7924L169.405 84.7972C168.252 86.4224 167.178 87.6852 166.182 88.557L166.171 88.5668C165.205 89.3824 164.273 89.9596 163.381 90.2377L163.382 90.2386C163.38 90.2395 163.376 90.2397 163.373 90.2406C163.37 90.2415 163.368 90.2436 163.365 90.2445L163.364 90.2435C162.523 90.5222 161.717 90.6722 160.952 90.6722C160.627 90.6722 160.285 90.6117 159.981 90.4291C159.732 90.2798 159.549 90.0715 159.426 89.8285C159.738 89.8665 160.075 89.889 160.438 89.889C160.54 89.889 160.638 89.8813 160.732 89.8715C160.749 89.874 160.766 89.8793 160.785 89.8812L160.951 89.889C161.621 89.889 162.348 89.758 163.134 89.4961C163.796 89.2924 164.525 88.8765 165.321 88.2494L165.666 87.9681C166.481 87.255 167.374 86.2409 168.345 84.9261L168.766 84.3446C169.901 82.7148 171.152 80.532 172.52 77.7962C173.452 75.9917 174.267 74.551 174.965 73.4742C175.198 73.1293 175.421 72.8129 175.633 72.5248L174.695 75.4271ZM174.75 67.9574C174.732 68.0196 174.716 68.0833 174.703 68.1481C174.63 68.4891 174.63 68.8094 174.7 69.1097C174.084 69.7597 173.43 70.5738 172.739 71.5533C171.72 73.0376 170.556 75.0312 169.246 77.5342L168.705 78.5765C168.171 79.5915 167.653 80.5247 167.151 81.376C166.452 82.4819 165.797 83.4278 165.186 84.2137C164.546 84.9995 163.935 85.5961 163.353 86.0036L163.125 86.1468C162.6 86.4588 162.108 86.6148 161.65 86.6148L161.52 86.6234C161.489 86.6274 161.458 86.6341 161.427 86.641C161.349 86.625 161.267 86.6148 161.18 86.6148C160.811 86.6148 160.536 86.5302 160.353 86.3627C160.706 86.0428 161.138 85.8314 161.65 85.8314C161.967 85.8314 162.382 85.7079 162.911 85.3568C163.409 85.0063 163.963 84.4736 164.568 83.7328C165.156 82.9769 165.792 82.0598 166.476 80.9779C167.136 79.8591 167.826 78.5928 168.548 77.1781L168.552 77.1713L169.039 76.2504C170.162 74.1561 171.18 72.4408 172.093 71.1107L172.099 71.1019L172.496 70.5511C173.281 69.488 174.032 68.6187 174.75 67.9574ZM181.077 68.1481L181.829 68.3636C181.681 68.8832 181.423 69.3579 181.068 69.7845L181.067 69.7836C180.757 70.1602 180.362 70.3949 179.912 70.4925C179.956 70.2047 179.98 69.9246 179.984 69.6517C180.168 69.5719 180.329 69.4501 180.466 69.2831C180.757 68.9339 180.961 68.5555 181.077 68.1481ZM180.671 65.7113C180.946 65.7337 181.219 65.8357 181.445 66.0443C181.683 66.2641 181.808 66.5457 181.875 66.807C182.01 67.3003 181.973 67.8262 181.833 68.35L181.829 68.3636L181.077 68.1481C181.193 67.7115 181.208 67.3331 181.121 67.013C181.033 66.6637 180.844 66.4891 180.553 66.4891C179.822 66.4891 179.092 66.5826 178.361 66.7699C177.952 66.6056 177.44 66.5132 176.823 66.4945C177.179 66.3172 177.536 66.1794 177.893 66.0853L178.224 65.9965C178.997 65.8032 179.774 65.7064 180.553 65.7064L180.671 65.7113Z" fill="#007AFF" />
  <path d="M156.945 82.6857C156.683 83.3842 156.48 84.1554 156.334 84.9995L156.287 85.3041C156.191 86.0106 156.207 86.6949 156.334 87.3569C156.509 88.0845 156.902 88.6812 157.513 89.1468C158.073 89.5797 158.89 89.8232 159.962 89.8773L160.438 89.889C160.54 89.889 160.638 89.8813 160.732 89.8715C160.8 89.8813 160.873 89.889 160.951 89.889C161.457 89.889 161.996 89.8139 162.568 89.6644C162.513 89.7337 162.455 89.8014 162.393 89.8666L162.299 89.972C161.817 90.4776 161.149 90.6722 160.438 90.6722C159.056 90.6722 157.877 90.4152 157.038 89.7689C156.288 89.1972 155.791 88.4474 155.573 87.5394L155.569 87.5218L155.565 87.5052C155.446 86.889 155.415 86.2595 155.466 85.6195C154.496 86.7193 153.54 87.6437 152.593 88.3861L152.26 88.641C150.488 89.9545 148.727 90.6722 146.992 90.6722C145.927 90.6722 144.962 90.405 144.124 89.8529L143.958 89.7386C143.097 89.1182 142.447 88.2524 141.993 87.182C141.542 86.1207 141.326 84.8996 141.32 83.5375C141.564 83.1943 141.811 82.8382 142.058 82.4674C142.09 82.4219 142.12 82.3754 142.151 82.3295C142.119 82.7179 142.102 83.0988 142.102 83.4715L142.112 83.9545C142.156 85.0621 142.357 86.0364 142.713 86.8767C143.121 87.8372 143.688 88.5793 144.416 89.1032C145.052 89.5615 145.789 89.819 146.626 89.8763L146.992 89.889C148.41 89.889 149.906 89.3386 151.478 88.2386L151.794 88.0118C153.474 86.766 155.226 84.8852 157.05 82.3705L156.945 82.6857ZM156.596 65.7064C157.793 65.7064 159.061 65.9256 160.397 66.349C160.811 66.4714 161.214 66.613 161.604 66.7679C161.744 66.572 161.907 66.4017 162.099 66.2738L162.13 66.2543C162.597 65.9742 163.185 65.8812 163.799 65.8812C164.285 65.8812 164.724 65.9187 165.096 66.014C165.432 66.1001 165.791 66.2551 166.055 66.5463L166.159 66.6605C166.637 67.2418 166.546 68.0034 166.329 68.6254L161.531 82.8841L161.532 82.8851C161.289 83.628 161.114 84.2424 161.005 84.7328C160.899 85.21 160.866 85.5279 160.87 85.7172C160.875 85.7539 160.881 85.7752 160.885 85.7855C160.906 85.7963 160.985 85.8314 161.18 85.8314C161.73 85.8315 162.203 86.0398 162.547 86.43C162.235 86.5518 161.936 86.6148 161.65 86.6148C161.574 86.6148 161.5 86.6246 161.427 86.641C161.395 86.6343 161.362 86.6273 161.328 86.6234L161.18 86.6148C160.51 86.6148 160.147 86.3383 160.089 85.7853C160.059 85.2032 160.292 84.1555 160.787 82.642L165.589 68.3663C165.793 67.7843 165.764 67.3623 165.502 67.1003C165.298 66.8456 164.838 66.7021 164.121 66.6703L163.799 66.6637C163.246 66.6637 162.824 66.7511 162.533 66.9257C162.319 67.0687 162.124 67.3486 161.949 67.765C161.389 67.5058 160.798 67.284 160.176 67.1003C159.055 66.7438 158.002 66.543 157.015 66.4984L156.596 66.4891C154.762 66.4891 153.074 66.8675 151.532 67.6242L150.972 67.9086C149.686 68.5993 148.534 69.4797 147.515 70.5492L147.087 71.014C146.107 72.1121 145.26 73.3107 144.547 74.6092L144.265 75.1381C144.009 75.1851 143.797 75.3423 143.63 75.6133C143.2 76.3164 142.772 76.9952 142.348 77.6517C142.741 76.4932 143.245 75.3535 143.861 74.2328C144.708 72.6893 145.738 71.2807 146.949 70.0091L147.418 69.5375C148.535 68.465 149.794 67.591 151.193 66.9183C152.848 66.1074 154.653 65.7064 156.596 65.7064ZM146.075 82.773C146.075 81.9581 146.186 81.065 146.409 80.0941L146.511 79.6734C146.766 78.6802 147.121 77.687 147.577 76.6937L147.777 76.2682C148.33 75.104 149 74.0562 149.786 73.1249C150.6 72.1645 151.517 71.3932 152.536 70.8111C153.584 70.229 154.733 69.938 155.985 69.938L156.338 69.9437C157.172 69.9692 158.073 70.0835 159.041 70.2872C159.619 70.3938 160.241 70.5766 160.907 70.8343L160.357 72.4808C158.98 75.1478 157.625 77.4585 156.29 79.4114C154.748 81.7107 153.293 83.4569 151.925 84.6502C150.557 85.8144 149.334 86.3965 148.258 86.3965L148.257 85.6136C149.057 85.6136 150.099 85.1733 151.41 84.0599L151.655 83.8412C152.884 82.7157 154.213 81.1017 155.64 78.975L155.644 78.9701L156.225 78.098C157.343 76.3822 158.479 74.4071 159.634 72.1722L159.92 71.3177C159.56 71.2041 159.22 71.1162 158.899 71.057L158.879 71.0531C157.816 70.8292 156.852 70.7211 155.985 70.7211C154.86 70.7211 153.843 70.981 152.916 71.4955C151.986 72.0283 151.141 72.7364 150.383 73.6293L150.384 73.6302C149.644 74.5072 149.01 75.4971 148.485 76.6039L148.481 76.6107C148.016 77.5654 147.649 78.5161 147.379 79.4623L147.27 79.8675C146.991 80.9545 146.858 81.9214 146.858 82.7728C146.858 83.4399 146.938 83.9982 147.083 84.4584C147.228 84.9151 147.412 85.1991 147.597 85.3715C147.806 85.5407 148.018 85.6136 148.257 85.6136L148.258 86.3965L148.096 86.39C147.777 86.3628 147.482 86.2529 147.212 86.0619L147.079 85.9599C146.799 85.7052 146.574 85.3502 146.406 84.8949L146.337 84.6939C146.184 84.21 146.098 83.659 146.079 83.0414L146.075 82.773Z" fill="#007AFF" />
  <path d="M142.151 82.3295C142.119 82.7179 142.102 83.0988 142.102 83.4715C142.102 83.5747 142.105 83.6767 142.108 83.7777C141.191 85.084 140.288 86.212 139.396 87.1537L139.381 87.1683C138.264 88.2856 137.14 89.154 136.006 89.7523L135.998 89.7562C134.816 90.3636 133.573 90.6722 132.28 90.6722C131.614 90.6722 131.061 90.3676 130.713 89.8041C131.063 89.86 131.431 89.889 131.819 89.889C131.914 89.889 132.006 89.8829 132.094 89.8744C132.106 89.8762 132.119 89.8798 132.131 89.8812L132.279 89.889C133.298 89.8889 134.283 89.6775 135.235 89.2543L135.641 89.0595C136.558 88.5757 137.485 87.8911 138.424 87.0062L138.828 86.6148C139.876 85.5088 140.952 84.1263 142.058 82.4674C142.09 82.4219 142.12 82.3754 142.151 82.3295ZM143.695 74.5091C144.014 74.3493 144.357 74.31 144.691 74.3558C144.643 74.44 144.593 74.5242 144.547 74.6092C144.45 74.7852 144.356 74.9613 144.265 75.1381C144.009 75.1851 143.797 75.3423 143.63 75.6133C142.67 77.185 141.724 78.6402 140.792 79.979L140.099 80.9506C139.412 81.889 138.74 82.7294 138.086 83.4715L137.748 83.8324C136.965 84.6504 136.205 85.3015 135.466 85.7853L135.152 85.9799C134.423 86.4032 133.727 86.6148 133.065 86.6148L132.843 86.6234C132.834 86.6241 132.824 86.6255 132.815 86.6263C132.761 86.6193 132.706 86.6148 132.648 86.6148C132.162 86.6147 131.74 86.5242 131.38 86.3441C131.851 85.9824 132.438 85.8315 133.065 85.8314C133.626 85.8314 134.279 85.6269 135.037 85.1302L135.329 84.93C136.018 84.4386 136.745 83.7801 137.507 82.9437C138.354 81.9833 139.235 80.8467 140.15 79.5316L140.844 78.516C141.541 77.4786 142.247 76.3753 142.962 75.2054L142.963 75.2025L143.106 74.9974C143.261 74.7997 143.456 74.6287 143.695 74.5091Z" fill="#007AFF" />
  <path d="M126.343 83.7191C126.347 83.8714 126.352 84.0217 126.361 84.17C126.478 85.9745 127.002 87.386 127.933 88.4047C128.834 89.3324 130.028 89.8252 131.517 89.8832L131.819 89.889C131.914 89.889 132.006 89.8829 132.094 89.8744C132.153 89.8831 132.215 89.889 132.279 89.889C132.856 89.889 133.423 89.8207 133.978 89.6849C133.92 89.7565 133.857 89.8256 133.791 89.8929L133.792 89.8939C133.284 90.4487 132.582 90.6722 131.819 90.6722C130.019 90.6722 128.506 90.1185 127.371 88.9496L127.363 88.9418L127.355 88.933C126.287 87.7647 125.723 86.195 125.587 84.307C125.84 84.1149 126.092 83.9189 126.343 83.7191ZM131.674 78.7855C131.117 80.4945 130.823 81.8977 130.768 83.0101V83.4183C130.794 84.3142 130.987 84.8965 131.253 85.2543C131.544 85.6164 131.968 85.8314 132.648 85.8314C133.214 85.8314 133.698 86.052 134.044 86.4642C133.71 86.5625 133.384 86.6148 133.065 86.6148C132.979 86.6148 132.895 86.6194 132.815 86.6263C132.809 86.6255 132.803 86.6241 132.796 86.6234L132.648 86.6148C131.83 86.6147 131.19 86.3586 130.73 85.847L130.64 85.7416C130.174 85.1304 129.956 84.2137 129.985 82.9913C130.026 82.1252 130.2 81.1206 130.504 79.9769C130.898 79.586 131.288 79.1885 131.674 78.7855ZM148.059 50.5545C148.059 49.3612 147.855 48.328 147.448 47.4549C147.116 46.6909 146.663 46.0713 146.086 45.597L145.832 45.403C145.246 44.97 144.56 44.7263 143.774 44.6722L143.431 44.6609C141.568 44.6609 139.968 45.4321 138.629 46.9747L138.385 47.2748C137.171 48.83 136.059 51.2039 135.049 54.3963L127.366 77.7525C127.216 78.218 127.082 78.6723 126.965 79.1156C126.938 79.1411 126.912 79.1677 126.885 79.1932C126.572 79.4828 126.256 79.7632 125.942 80.0384C126.113 79.2291 126.34 78.3871 126.62 77.5131L126.621 77.5082L134.305 54.1517C135.392 50.716 136.623 48.1276 138.032 46.4681L138.037 46.4613L138.318 46.1527C139.737 44.6585 141.45 43.8783 143.431 43.8783C144.503 43.8783 145.466 44.1648 146.284 44.764C147.112 45.3506 147.738 46.1544 148.166 47.1439C148.626 48.1377 148.842 49.2816 148.842 50.5541C148.842 51.2951 148.577 51.9625 147.96 52.4017L147.961 52.4037C147.772 52.546 147.568 52.6578 147.355 52.7435C147.429 52.3944 147.488 52.0618 147.531 51.7455C147.836 51.517 148.011 51.1882 148.05 50.7552L148.059 50.5545ZM143.609 50.5541C143.609 50.2149 143.586 49.9308 143.546 49.6966L143.501 49.4779C143.44 49.2329 143.352 49.0942 143.271 49.0131C143.266 49.0079 143.194 48.936 142.908 48.9359C142.692 48.9359 142.422 49.0255 142.088 49.3373L142.086 49.3382C141.802 49.6022 141.418 50.1902 140.959 51.222L140.956 51.2289C140.505 52.2162 139.946 53.6465 139.28 55.5306L134.297 70.7631C133.827 71.4047 133.345 72.039 132.852 72.6654L138.542 55.2694C139.127 53.6142 139.635 52.2928 140.065 51.306L140.244 50.9037C140.652 49.9871 141.037 49.3265 141.4 48.9222L141.554 48.7646C141.99 48.3571 142.442 48.1534 142.907 48.1534L143.055 48.1586C143.389 48.1808 143.646 48.2807 143.824 48.459C144.028 48.6627 144.173 48.9392 144.261 49.2885C144.302 49.4548 144.333 49.6378 144.355 49.8373C144.088 50.0059 143.955 50.231 143.955 50.5108C143.955 50.8851 143.925 51.2869 143.866 51.7162C143.687 51.3677 143.609 50.9695 143.609 50.5541Z" fill="#007AFF" />
  <path d="M126.343 83.7191C126.347 83.8714 126.352 84.0217 126.361 84.17C126.372 84.3392 126.388 84.5051 126.406 84.6674C125.487 85.3803 124.552 86.0439 123.603 86.6576L123.604 86.6586C121.695 87.9111 119.749 88.8995 117.767 89.6205L117.76 89.6234L117.753 89.6254C115.728 90.3208 113.706 90.6722 111.693 90.6722C110.337 90.6722 109.115 90.4034 108.051 89.8382C107.009 89.2848 106.145 88.5175 105.463 87.5443C105.189 87.1566 104.945 86.7487 104.73 86.3236C104.955 86.1898 105.178 86.0521 105.401 85.9125C105.606 86.3263 105.84 86.7211 106.105 87.095C106.716 87.9681 107.487 88.6521 108.419 89.1468C109.233 89.5797 110.171 89.8232 111.231 89.8773L111.693 89.889C113.374 89.889 115.066 89.633 116.769 89.1205L117.499 88.8849C119.42 88.1864 121.312 87.226 123.175 86.0036C124.25 85.3086 125.305 84.5458 126.343 83.7191ZM109.456 83.6361C109.548 83.8036 109.649 83.9627 109.761 84.1127L109.893 84.2797L109.902 84.2904L109.91 84.3002C110.238 84.7219 110.646 85.0503 111.143 85.2894C111.635 85.4974 112.234 85.6136 112.959 85.6136L112.959 86.3965L112.658 86.39C112.066 86.3654 111.531 86.2678 111.054 86.0961L110.82 86.0036C110.285 85.7489 109.828 85.4049 109.45 84.972L109.292 84.7812C109.111 84.5639 108.951 84.3307 108.81 84.0834C109.028 83.9324 109.243 83.7828 109.456 83.6361ZM127.366 77.7525C127.216 78.218 127.082 78.6723 126.965 79.1156C126.938 79.1411 126.912 79.1677 126.885 79.1932C125.343 80.6193 123.786 81.8708 122.214 82.9476L121.625 83.3402C120.253 84.2316 118.893 84.9449 117.543 85.4797L116.955 85.6947C115.59 86.1626 114.258 86.3964 112.959 86.3965L112.959 85.6136C114.333 85.6136 115.763 85.3308 117.254 84.7513L117.811 84.5209C119.112 83.9575 120.433 83.2196 121.772 82.3021L122.348 81.8988C123.689 80.9405 125.022 79.8488 126.348 78.6234L126.916 78.0804C127.085 77.9167 127.253 77.7507 127.42 77.5843L127.366 77.7525ZM103.445 80.4593C103.445 78.9183 103.63 77.3997 104.002 75.9056L104.173 75.267C104.572 73.756 105.147 72.3643 105.9 71.0961L106.235 70.558C107.108 69.1911 108.193 68.0735 109.489 67.2152L109.751 67.0463C111.168 66.147 112.784 65.7064 114.575 65.7064L114.696 65.7113C114.976 65.737 115.242 65.8536 115.455 66.0668C115.662 66.2733 115.774 66.5287 115.84 66.766C115.494 66.6478 115.134 66.5658 114.758 66.5238C114.703 66.5009 114.641 66.4892 114.574 66.4891C114.475 66.4891 114.376 66.4896 114.278 66.4925C114.227 66.4912 114.175 66.4891 114.123 66.4891C113.943 66.4891 113.775 66.5062 113.618 66.5365C112.345 66.6652 111.194 67.0568 110.165 67.7115L109.922 67.8675C108.72 68.6639 107.709 69.7033 106.891 70.9857L106.574 71.4955C105.857 72.7019 105.308 74.0308 104.926 75.4824C104.46 77.1122 104.228 78.7711 104.228 80.4592L104.235 80.9261C104.256 81.5874 104.325 82.2318 104.438 82.8597C104.406 82.8694 104.375 82.8835 104.344 82.904C104.14 83.0399 103.933 83.1726 103.725 83.3041C103.538 82.3862 103.445 81.4376 103.445 80.4593ZM148.059 50.5545C148.059 50.1834 148.036 49.8278 147.996 49.4877C148.243 49.7471 148.405 50.086 148.405 50.5111C148.405 51.6325 148.166 52.9638 147.718 54.4867L147.717 54.4906C147.324 55.8 146.785 57.2365 146.104 58.7992L145.804 59.4769C145.08 61.08 144.233 62.7359 143.264 64.4447L142.842 65.18C141.695 67.1514 140.4 69.1492 138.962 71.1742L138.963 71.1752C137.727 72.9267 136.401 74.633 134.985 76.2933L134.372 77.0023C133.026 78.5409 131.629 79.9997 130.183 81.3822C130.265 80.9397 130.373 80.4713 130.504 79.9769C131.412 79.0762 132.301 78.1443 133.168 77.1791L133.783 76.4865C135.413 74.6238 136.926 72.7029 138.323 70.7238C139.571 68.9666 140.708 67.2316 141.733 65.5189L142.165 64.7865C143.158 63.0805 144.029 61.43 144.777 59.8353L145.09 59.1548C145.803 57.5759 146.371 56.1303 146.794 54.8187L146.967 54.2653C147.241 53.3338 147.429 52.4936 147.531 51.7455C147.882 51.4829 148.059 51.0872 148.059 50.5545ZM108.026 80.6338C108.026 80.0225 108.075 79.3703 108.173 78.6771L108.288 77.9708C108.415 77.1303 108.609 76.301 108.87 75.4828L108.986 75.1331C109.241 74.2928 109.562 73.5304 109.951 72.8461L110.121 72.5574C110.529 71.8699 110.992 71.3051 111.511 70.8627L111.737 70.6801C112.256 70.2847 112.838 70.058 113.483 69.9984C113.928 70.0506 114.273 70.2334 114.516 70.5492C114.522 70.5566 114.526 70.5651 114.532 70.5726C114.33 70.6886 114.098 70.7649 113.832 70.765C113.214 70.765 112.683 70.9439 112.211 71.3031C111.694 71.6974 111.218 72.2412 110.794 72.9564L110.788 72.9681C110.362 73.6606 110.01 74.4557 109.736 75.3597L109.731 75.3744L109.727 75.3881C109.422 76.2753 109.2 77.1752 109.062 78.0882L109.06 78.1L109.058 78.1107C108.921 78.8643 108.843 79.5629 108.819 80.2074C108.561 80.4081 108.297 80.6077 108.028 80.806L108.026 80.6338ZM143.172 50.5111C143.172 50.1992 143.261 49.8977 143.447 49.6341C143.627 49.3789 143.871 49.1975 144.128 49.0687L144.14 49.0629L144.151 49.058C144.162 49.0529 144.173 49.0483 144.184 49.0433C144.213 49.1207 144.239 49.2022 144.261 49.2885C144.302 49.4548 144.333 49.6378 144.355 49.8373C144.088 50.0059 143.955 50.231 143.955 50.5108L143.945 50.9027C143.897 51.8385 143.682 52.9303 143.3 54.178L143.139 54.7084C142.744 55.9593 142.216 57.3105 141.554 58.7619L141.263 59.3871C140.569 60.8513 139.764 62.3601 138.847 63.9134L138.449 64.5795C137.506 66.1361 136.475 67.7042 135.355 69.2831C134.556 70.4344 133.721 71.5616 132.852 72.6654L133.592 70.3998C133.972 69.8835 134.346 69.3635 134.711 68.8373L134.716 68.8304L135.187 68.1605C136.272 66.5997 137.267 65.0508 138.173 63.515L138.554 62.8607C139.428 61.3388 140.19 59.8641 140.841 58.4369C141.586 56.804 142.154 55.3116 142.548 53.9584L142.551 53.9486L142.7 53.4418C143.021 52.2844 143.172 51.3109 143.172 50.5111Z" fill="#007AFF" />
  <path d="M118.882 71.0731C118.881 70.2328 118.714 69.5035 118.38 68.8861L118.227 68.6283C117.819 67.9298 117.252 67.4059 116.524 67.0567C115.977 66.772 115.388 66.5943 114.758 66.5238C114.703 66.5009 114.641 66.4892 114.574 66.4891C114.475 66.4891 114.376 66.4896 114.278 66.4925L114.123 66.4891C113.943 66.4891 113.775 66.5062 113.618 66.5365C112.966 66.6023 112.347 66.7373 111.76 66.9408C111.86 66.7808 111.973 66.6273 112.105 66.4838L112.117 66.4711L112.128 66.4593C112.658 65.93 113.357 65.7064 114.123 65.7064C115.114 65.7065 116.039 65.9217 116.885 66.3617C117.732 66.7732 118.401 67.3907 118.882 68.2006L118.98 68.3558C119.448 69.1423 119.664 70.0591 119.664 71.0726C119.664 72.5527 119.187 74.0681 118.294 75.6078L118.295 75.6088C117.443 77.1003 116.31 78.5771 114.907 80.0404L114.901 80.0463C113.5 81.4768 111.938 82.8153 110.216 84.0619L110.208 84.0677L110.2 84.0736C109.888 84.287 109.572 84.507 109.25 84.7299C109.086 84.5273 108.94 84.3115 108.81 84.0834L109.757 83.4278C111.234 82.3583 112.589 81.2221 113.821 80.0189L114.341 79.4988C115.709 78.0726 116.801 76.6465 117.615 75.2204C118.407 73.8563 118.827 72.5559 118.876 71.3197L118.882 71.0731ZM104.357 82.3509C104.381 82.5218 104.408 82.6913 104.438 82.8597C104.406 82.8694 104.375 82.8835 104.344 82.904C104.279 82.9474 104.213 82.9896 104.147 83.0326L103.941 82.6058L104.357 82.3509ZM114.169 72.1205C114.169 71.6267 114.075 71.3096 113.951 71.1068L113.895 71.0267C113.785 70.8837 113.605 70.7651 113.206 70.765C112.795 70.765 112.427 70.6471 112.123 70.4252C112.541 70.1863 112.993 70.0437 113.483 69.9984C113.928 70.0506 114.273 70.2334 114.516 70.5492C114.807 70.9275 114.952 71.4514 114.952 72.1208L114.938 72.4408C114.868 73.1952 114.552 74.0053 113.992 74.8712C113.381 75.8607 112.551 76.8648 111.504 77.8835L111.105 78.264C110.176 79.1333 109.15 79.9798 108.028 80.806C108.027 80.7491 108.026 80.6915 108.026 80.6338C108.026 80.3663 108.036 80.0911 108.055 79.808C109.119 78.9972 110.086 78.1685 110.957 77.3216L111.327 76.9545C112.163 76.0993 112.827 75.267 113.326 74.4593L113.33 74.4525L113.334 74.4457C113.924 73.5346 114.169 72.7649 114.169 72.1205Z" fill="#007AFF" />
  <path d="M85.0092 85.4896C85.0902 85.6489 85.1749 85.8062 85.266 85.9599C85.7026 86.7457 86.2992 87.4442 87.0559 88.0554C87.7835 88.6375 88.6712 89.0886 89.719 89.4088C90.6357 89.6889 91.6973 89.8462 92.9037 89.8812L93.4298 89.889C94.7395 89.889 96.0928 89.7144 97.4898 89.3651C98.7122 89.085 99.9343 88.6818 101.157 88.1566L101.681 87.9245C102.957 87.3393 104.197 86.6677 105.401 85.9125C105.518 86.1478 105.644 86.3766 105.78 86.599C104.728 87.2572 103.649 87.8533 102.541 88.3851L102.007 88.6361C100.565 89.2971 99.1171 89.7954 97.6644 90.1283L97.6635 90.1273C96.2161 90.4879 94.8046 90.6722 93.4301 90.6722C92.1337 90.6722 90.9626 90.5448 89.9262 90.2797L89.4906 90.1576C88.3645 89.8135 87.384 89.3202 86.5668 88.6664L86.5639 88.6644C85.7354 87.9953 85.0707 87.2209 84.5814 86.3402C84.4988 86.2 84.42 86.0567 84.3451 85.9125C84.5641 85.7751 84.7856 85.6345 85.0092 85.4896ZM89.307 83.5511C89.5073 83.9373 89.7558 84.2782 90.0541 84.5765L90.2201 84.7328C90.6209 85.0867 91.1144 85.3671 91.7133 85.5668L91.9779 85.6478C92.6093 85.8253 93.3385 85.9193 94.1723 85.9193L94.172 86.7021L93.7953 86.6957C93.0531 86.6711 92.3762 86.5736 91.765 86.4017L91.4652 86.3092C90.7777 86.08 90.1905 85.7504 89.7035 85.3207L89.5007 85.1304C89.1667 84.7964 88.8864 84.4193 88.6586 84.0004C88.8773 83.849 89.0927 83.6982 89.307 83.5511ZM104.323 82.0824C104.353 82.3443 104.392 82.6034 104.438 82.8597C104.406 82.8694 104.375 82.8835 104.344 82.904C103.296 83.6025 102.19 84.2428 101.026 84.8248L100.589 85.0277C99.5707 85.4892 98.552 85.8726 97.5335 86.1782L97.099 86.3011C96.09 86.5685 95.1141 86.702 94.172 86.7021L94.1723 85.9193C95.1637 85.9193 96.2087 85.7582 97.309 85.4281C98.4311 85.0914 99.5563 84.6553 100.685 84.1195C101.818 83.5527 102.892 82.9304 103.91 82.2523L104.013 82.1908C104.11 82.1394 104.215 82.1031 104.323 82.0824ZM83.1732 80.4593C83.1732 79.2365 83.3112 77.9612 83.5824 76.6351C83.8551 75.2727 84.2643 73.9682 84.8109 72.723C85.3626 71.4374 86.0695 70.2694 86.932 69.222C87.8145 68.1505 88.8733 67.2965 90.1039 66.6654L90.3412 66.5482C91.5379 65.982 92.8635 65.7064 94.3031 65.7064L94.4242 65.7113C94.7048 65.737 94.9707 65.8535 95.184 66.0668C95.3904 66.2733 95.5026 66.5287 95.5687 66.766C95.2225 66.6478 94.8622 66.5658 94.4867 66.5238C94.4312 66.5009 94.3699 66.4891 94.3029 66.4891C94.2214 66.4891 94.1405 66.4926 94.06 66.4945C93.9911 66.4921 93.9215 66.4891 93.8517 66.4891C93.6717 66.4891 93.5033 66.5052 93.3461 66.5355C92.298 66.6383 91.3363 66.9135 90.4611 67.3622L90.0434 67.5902C89.0851 68.1441 88.2493 68.8538 87.5362 69.7197L87.2377 70.0961C86.5564 70.9874 85.9864 71.9679 85.528 73.0376C85.0041 74.2309 84.6112 75.4824 84.3492 76.7921C84.0873 78.0726 83.9563 79.295 83.9563 80.4592L83.9613 80.8392C83.977 81.4589 84.0307 82.0621 84.1234 82.6488C83.882 82.8068 83.6442 82.9612 83.4086 83.1097C83.2516 82.2558 83.1732 81.3721 83.1732 80.4593ZM87.8418 80.3719C87.8418 79.557 87.9305 78.6526 88.1088 77.6595L88.191 77.2286C88.3947 76.1845 88.6877 75.1739 89.0697 74.1966L89.2388 73.7798C89.6463 72.8119 90.154 71.9999 90.7621 71.3441L91.0287 71.0731C91.6411 70.4352 92.3655 70.076 93.2016 69.9974C93.6521 70.048 93.9999 70.231 94.2446 70.5492C94.2503 70.5566 94.2546 70.5651 94.2601 70.5726C94.0581 70.6886 93.8269 70.765 93.5609 70.765C92.7892 70.765 92.1472 71.0384 91.5932 71.6156L91.5707 71.6381C91.0129 72.1736 90.529 72.859 90.1273 73.7093L89.9603 74.0834C89.5158 75.1391 89.182 76.2372 88.9594 77.3783L88.9584 77.3822C88.7525 78.4118 88.6455 79.3316 88.6283 80.1449C88.3738 80.3439 88.1134 80.541 87.848 80.7377L87.8418 80.3719Z" fill="#007AFF" />
  <path d="M85.4213 86.223C85.5347 86.4068 85.6576 86.5854 85.7894 86.7591L85.7055 86.8099L85.4213 86.223ZM98.6102 71.0731C98.6102 70.2328 98.443 69.5036 98.1088 68.8861L97.9554 68.6283C97.5479 67.9298 96.9804 67.4059 96.2528 67.0567C95.7054 66.772 95.1165 66.5943 94.4867 66.5238C94.4312 66.5009 94.3699 66.4891 94.3029 66.4891C94.2214 66.4891 94.1405 66.4926 94.06 66.4945L93.8517 66.4891C93.6717 66.4891 93.5033 66.5052 93.3461 66.5355C92.6967 66.5992 92.0804 66.7287 91.4975 66.9252C91.5947 66.7707 91.706 66.6228 91.8334 66.4838L91.8451 66.4711L91.8578 66.4593C92.3871 65.9302 93.0855 65.7064 93.8519 65.7064C94.8422 65.7065 95.7675 65.9218 96.6137 66.3617C97.4608 66.7732 98.1299 67.3907 98.6107 68.2006L98.7084 68.3558C99.1763 69.1423 99.3929 70.059 99.393 71.0726C99.393 72.5542 98.9158 74.0723 98.0219 75.6136L98.0209 75.6127C97.1688 77.1029 96.0374 78.5785 94.6351 80.0404L94.6293 80.0463C93.2286 81.4767 91.6671 82.8153 89.9457 84.0619L89.9281 84.0736C89.6507 84.2634 89.3711 84.4594 89.0863 84.6566C88.9276 84.4507 88.7847 84.2323 88.6586 84.0004L89.486 83.4278C90.963 82.3584 92.3174 81.2221 93.5492 80.0189L94.07 79.4988C95.4379 78.0726 96.5293 76.6465 97.3442 75.2204C98.1354 73.8563 98.5554 72.5559 98.6049 71.3197L98.6102 71.0731ZM84.1234 82.6488C84.0129 82.7212 83.9027 82.7923 83.7934 82.8627L83.6693 82.6058L84.0805 82.3539C84.0938 82.4526 84.108 82.551 84.1234 82.6488ZM93.8978 72.1205C93.8978 71.6267 93.8036 71.3096 93.6791 71.1068L93.6244 71.0267C93.5144 70.8837 93.3333 70.765 92.935 70.765C92.5219 70.765 92.1531 70.6465 91.849 70.4232C92.2616 70.1858 92.7124 70.0434 93.2016 69.9974C93.6521 70.048 93.9999 70.231 94.2446 70.5492C94.5356 70.9275 94.6812 71.4514 94.6812 72.1208L94.6664 72.4408C94.5964 73.1952 94.281 74.0053 93.7207 74.8712C93.1095 75.8607 92.2801 76.8648 91.2323 77.8835L90.8334 78.264C89.9302 79.1095 88.9343 79.9329 87.848 80.7377C87.844 80.6176 87.8418 80.4956 87.8418 80.3719C87.8418 80.1703 87.8479 79.9629 87.8588 79.7504C88.8933 78.9579 89.8364 78.1485 90.6869 77.3216L91.056 76.9545C91.8926 76.0995 92.5563 75.2669 93.0551 74.4593L93.059 74.4525L93.0639 74.4457C93.6533 73.5347 93.8978 72.7648 93.8978 72.1205Z" fill="#007AFF" />
  <path d="M85.0092 85.4896C85.0902 85.6489 85.1749 85.8062 85.266 85.9599C85.3062 86.0322 85.3491 86.1034 85.392 86.1742C83.8289 87.1856 82.3676 88.0212 81.0072 88.6742L80.9984 88.6781L80.9906 88.682C79.4828 89.362 78.1169 89.8586 76.8978 90.1644L76.8988 90.1654C75.6671 90.4959 74.5762 90.6722 73.64 90.6722C72.9569 90.6722 72.2611 90.4521 71.8891 89.7904C72.2747 89.8557 72.7071 89.889 73.1865 89.889C73.2686 89.889 73.3484 89.8846 73.4252 89.8783C73.4304 89.8788 73.4355 89.8808 73.4408 89.8812L73.6397 89.889C74.4838 89.889 75.5024 89.7289 76.6957 89.4088C77.7144 89.1541 78.8557 88.7547 80.1195 88.2103L80.6684 87.9681C82.0051 87.3265 83.4515 86.4995 85.0092 85.4896ZM84.0189 81.8041C84.0456 82.0893 84.0795 82.371 84.1234 82.6488C82.1181 83.9614 80.3124 84.95 78.7039 85.6107L78.0932 85.8461C76.6924 86.3587 75.4698 86.6148 74.4256 86.6148L74.223 86.6234C74.2112 86.6244 74.1996 86.6262 74.1879 86.6273C74.133 86.6198 74.0758 86.6148 74.0159 86.6148C73.5277 86.6148 73.2105 86.4673 73.0629 86.1732C73.4689 85.9436 73.9294 85.8315 74.4252 85.8314C75.3491 85.8314 76.477 85.6035 77.8217 85.1117L78.4105 84.8841C79.9792 84.2394 81.7665 83.2634 83.7748 81.9437C83.8532 81.8917 83.9353 81.8461 84.0189 81.8041Z" fill="#007AFF" />
  <path d="M72.7934 70.4701C73.2737 70.5084 73.5648 70.6803 73.6667 70.9857C73.8122 71.3059 73.7686 71.9025 73.5357 72.7757L73.3256 73.4466C73.1019 74.1342 72.8372 74.8712 72.5316 75.657L71.9535 77.2181C71.7571 77.7345 71.5566 78.2475 71.3529 78.7566C70.9454 79.7461 70.5816 80.6338 70.2615 81.4196L69.8578 82.4349C69.7487 82.7186 69.6648 82.9477 69.6066 83.1222C69.4029 83.7043 69.2283 84.3883 69.0828 85.1741L69.0463 85.4574C68.9763 86.1163 69.0173 86.764 69.1701 87.4006C69.3447 88.1282 69.7376 88.7248 70.3488 89.1905C70.8836 89.5978 71.6749 89.8274 72.7221 89.8783L73.1865 89.889C73.2686 89.889 73.3484 89.8846 73.4252 89.8783C73.4933 89.8847 73.5647 89.889 73.6397 89.889C74.1377 89.889 74.6963 89.8315 75.3158 89.7201C75.2665 89.7793 75.2144 89.8368 75.1596 89.8929L75.1605 89.8939C74.652 90.4486 73.9499 90.6721 73.1869 90.6722C71.9234 90.6722 70.8313 90.4612 70.0307 89.9252L69.8744 89.8129C69.2178 89.3126 68.7547 88.676 68.5033 87.9164L68.4086 87.5834C68.2097 86.7546 68.1775 85.9098 68.309 85.055L68.3129 85.0316C68.4637 84.2173 68.6474 83.4927 68.8676 82.8636C68.9935 82.4876 69.2192 81.9034 69.5365 81.1244L70.6293 78.4584C71.0323 77.4505 71.4209 76.4279 71.7953 75.391L71.7982 75.3822L71.8021 75.3734C72.2037 74.3409 72.5308 73.4003 72.7855 72.5511C72.891 72.1519 72.9456 71.8437 72.9623 71.6166C72.9773 71.411 72.9569 71.3244 72.9535 71.3099L72.9447 71.2914C72.8931 71.2729 72.7811 71.2445 72.5756 71.2445C72.0202 71.2445 71.4026 71.3656 70.7172 71.6293L70.7045 71.6341L70.6918 71.6381C69.9378 71.899 69.1547 72.175 68.3422 72.4652L68.3187 72.473C67.6565 72.6859 66.97 72.8183 66.2621 72.8734C66.3992 72.6002 66.5368 72.3237 66.6723 72.0424C67.0466 71.9922 67.4129 71.919 67.7709 71.8197L68.0787 71.7279L70.4361 70.8984C71.1928 70.6074 71.9059 70.4619 72.5753 70.4619L72.7934 70.4701ZM74.4965 65.9681C75.5143 65.9682 76.4183 66.2138 77.1205 66.7914L77.2582 66.9066C77.9264 67.4994 78.2901 68.3354 78.4164 69.3138C78.5514 70.3316 78.392 71.5911 78.0053 73.0521L78.0062 73.0531C77.793 73.9061 77.4765 74.8822 77.0619 75.9779C76.6811 77.0318 76.272 78.1001 75.8334 79.182C75.4267 80.2276 75.0488 81.187 74.6996 82.0599C74.3834 82.894 74.1769 83.4899 74.0707 83.8617L74.0678 83.8715C73.8173 84.7065 73.7281 85.3208 73.7504 85.7445L73.7582 85.8002C73.7929 85.8122 73.8701 85.8314 74.016 85.8314C74.3331 85.8314 74.6532 85.9008 74.9428 86.0746C75.1462 86.1967 75.3102 86.3565 75.4398 86.5394C75.0847 86.588 74.7469 86.6148 74.4256 86.6148C74.3442 86.6148 74.2648 86.6197 74.1879 86.6273C74.1798 86.6262 74.1717 86.6244 74.1635 86.6234L74.0159 86.6148C73.3885 86.6148 73.0418 86.3719 72.9769 85.8861L72.9682 85.7853C72.9427 85.3015 73.0286 84.6951 73.226 83.9662L73.3174 83.6461C73.4339 83.2387 73.6521 82.6129 73.9723 81.7689C74.3215 80.8958 74.6999 79.9353 75.1074 78.8876C75.5439 77.8107 75.9514 76.7484 76.3297 75.7006C76.7372 74.6238 77.0428 73.6779 77.2465 72.863C77.6249 71.4369 77.7559 70.2872 77.6394 69.4141C77.5376 68.6246 77.2686 68.0134 76.8324 67.5804L76.6353 67.4059C76.177 67.024 75.5735 66.8088 74.8256 66.7611L74.4962 66.7511C73.7395 66.7511 72.9682 66.8529 72.1824 67.0567L71.6205 67.1957C71.0638 67.343 70.5235 67.515 69.9995 67.7115C69.3301 67.9734 68.7335 68.2063 68.2096 68.41L67.8607 68.5248C67.5332 68.623 67.2711 68.6719 67.0746 68.6719C67.3947 68.2063 67.5984 67.7551 67.6858 67.3186C67.7731 66.9692 67.8272 66.6443 67.849 66.3441L67.8604 66.0526C67.8603 65.5433 67.7268 65.1115 67.4594 64.7582L67.3365 64.6119C67.031 64.281 66.6363 64.0945 66.1527 64.0531L65.9395 64.0444C65.241 64.0444 64.6589 64.219 64.1932 64.5682L64.0346 64.7045C63.6783 65.0322 63.411 65.4381 63.2328 65.9216C63.0291 66.4455 62.9272 67.013 62.9272 67.6242L62.932 67.9066C62.9543 68.5624 63.0545 69.1958 63.2328 69.807C63.3601 70.1731 63.5102 70.5037 63.681 70.8002C63.5403 71.0684 63.399 71.3325 63.2582 71.5931C62.9449 71.1472 62.6919 70.6342 62.4935 70.0638L62.4867 70.0453L62.4809 70.0267C62.2555 69.2542 62.144 68.4522 62.1439 67.6244C62.1439 66.9247 62.2615 66.26 62.5033 65.6381C62.7539 64.9645 63.154 64.3968 63.7045 63.9564L63.7133 63.9496L63.723 63.9418C64.3497 63.4718 65.1068 63.2611 65.9398 63.2611C66.7087 63.2612 67.3941 63.5201 67.9115 64.0804L68.0873 64.2904C68.4666 64.7935 68.6429 65.395 68.643 66.0521C68.643 66.4987 68.5751 66.9745 68.4525 67.474C68.8394 67.3232 69.2603 67.1604 69.7142 66.9828L69.725 66.9779C70.274 66.772 70.8392 66.5926 71.4203 66.4388L72.0062 66.2933C72.8447 66.0776 73.6755 65.9681 74.4965 65.9681Z" fill="#007AFF" />
  <path d="M67.6264 71.8568C66.474 74.3119 65.2572 76.4821 63.9711 78.3627L63.9721 78.3636C62.4638 80.6112 60.9286 82.4789 59.3627 83.9545L59.3617 83.9535C57.8418 85.4131 56.3566 86.5259 54.9037 87.2679L54.891 87.2748C53.4542 87.9778 52.0977 88.3578 50.8363 88.3578C49.6471 88.3578 48.5513 88.0851 47.5668 87.5287L47.3715 87.4134C46.9038 87.1268 46.4747 86.7534 46.0814 86.3021C46.0457 85.8187 46.0064 85.3406 45.9564 84.8685L45.9467 84.7894C46.4924 85.6789 47.1037 86.331 47.7804 86.7457C48.5699 87.2296 49.4486 87.5014 50.4164 87.5619L50.8364 87.5752C51.8042 87.5752 52.8721 87.3186 54.0404 86.806L54.5472 86.5711C55.9151 85.8726 57.3412 84.8103 58.8255 83.3842C60.339 81.9581 61.8378 80.1391 63.3222 77.9271C64.4917 76.2179 65.607 74.2556 66.6723 72.0424C66.9965 71.9989 67.3144 71.9371 67.6264 71.8568ZM45.806 78.1918C45.9539 78.7007 46.1111 79.1692 46.2797 79.597L46.4369 79.9701C46.809 80.8132 47.2108 81.4686 47.6312 81.9554L47.8178 82.1634C48.2545 82.6286 48.6908 82.9525 49.1215 83.1576L49.3129 83.2425C49.761 83.4284 50.2089 83.5179 50.6615 83.5179L50.6618 84.301L50.4223 84.2943C49.9447 84.267 49.4752 84.1582 49.0141 83.9672L48.7845 83.8644C48.2499 83.6098 47.7376 83.2215 47.2475 82.6996L47.0383 82.4674C46.4853 81.8271 45.9905 80.9685 45.554 79.8917C45.4219 79.5571 45.2978 79.2008 45.1791 78.8236C45.3885 78.6145 45.5978 78.4043 45.806 78.1918ZM63.266 69.8978C63.386 70.2279 63.5245 70.5285 63.681 70.8002C62.9356 72.2208 62.1904 73.5343 61.4449 74.7402L61.0736 75.3304C60.2077 76.6866 59.3422 77.887 58.4763 78.9312L58.1166 79.3695C57.2794 80.3722 56.4535 81.2305 55.6386 81.9435L55.3012 82.2289C54.5181 82.8751 53.7577 83.3769 53.0192 83.7334L52.7055 83.8666C51.9797 84.1562 51.2984 84.301 50.6618 84.301L50.6615 83.5179C51.253 83.5179 51.9291 83.3639 52.6986 83.0189C53.4596 82.6488 54.2684 82.0984 55.1244 81.3529C56.0141 80.5743 56.9288 79.6059 57.8666 78.4408L57.8734 78.431L58.2348 77.9867C59.0781 76.9263 59.9261 75.7076 60.7787 74.3285L61.1449 73.7279C61.851 72.5519 62.557 71.2748 63.266 69.8978ZM67.4652 67.9877C67.6491 68.137 67.814 68.3052 67.9594 68.4916C67.585 68.6103 67.2906 68.6719 67.0746 68.6719C67.2338 68.4403 67.3636 68.2121 67.4652 67.9877Z" fill="#007AFF" />
  <path d="M42.6934 85.0431C42.839 86.0036 42.9117 87.0513 42.9117 88.1864C42.9408 89.2924 42.9263 90.4274 42.8681 91.5916L42.8139 92.4652C42.7484 93.3382 42.6497 94.2111 42.5188 95.0841L42.4017 95.9545C42.2763 96.822 42.1259 97.6818 41.9513 98.533L41.7709 99.3734C41.5854 100.203 41.3837 101 41.1655 101.764L40.9418 102.536C40.7126 103.294 40.467 104.012 40.205 104.689C39.9722 105.242 39.7393 105.736 39.5065 106.173L39.3295 106.487C39.1494 106.787 38.9608 107.046 38.7643 107.264L38.5873 107.488C38.4071 107.695 38.2188 107.854 38.0222 107.963L37.9232 108.024C37.6908 108.158 37.4474 108.225 37.1927 108.225L37.1928 107.442C37.3165 107.442 37.444 107.407 37.5883 107.311L37.6146 107.293L37.642 107.279C37.7777 107.203 37.9449 107.06 38.1312 106.804L38.1547 106.771L38.182 106.741C38.3921 106.507 38.6054 106.199 38.8158 105.804L38.9809 105.484C39.144 105.157 39.3087 104.798 39.475 104.404C39.8136 103.529 40.1267 102.579 40.4115 101.554L40.4125 101.548L40.6215 100.788C40.8248 100.018 41.0121 99.2133 41.184 98.3754L41.348 97.5365C41.5035 96.6949 41.6343 95.8448 41.7416 94.9867L41.7435 94.9779L41.7445 94.9681C41.9154 93.8292 42.0294 92.6902 42.0863 91.5521L42.1205 90.6996C42.1352 90.2352 42.1408 89.7759 42.141 89.3216L38.0258 102.134C37.3013 104.395 36.9749 105.899 36.9711 106.726C36.9846 107.154 37.0642 107.348 37.1098 107.415C37.1257 107.439 37.1313 107.438 37.1244 107.434C37.1293 107.436 37.1492 107.442 37.1928 107.442L37.1927 108.225L37.0766 108.219C36.5119 108.161 36.2159 107.668 36.1886 106.74C36.1886 105.78 36.5524 104.165 37.28 101.895L42.6934 85.0431ZM61.815 50.5545C61.815 50.5453 61.814 50.5358 61.8139 50.5267C61.8107 49.3452 61.6081 48.3212 61.2038 47.4549C60.8727 46.6911 60.4192 46.0713 59.8432 45.597L59.5885 45.403C59.0029 44.9703 58.3167 44.7264 57.5307 44.6722L57.1874 44.6609C55.3247 44.6609 53.724 45.4321 52.3852 46.9747L52.141 47.2748C50.9268 48.83 49.8149 51.204 48.8053 54.3963L40.7289 79.1615C40.1466 79.6834 39.5649 80.1896 38.9826 80.6775C37.9349 81.5797 36.9017 82.4092 35.883 83.1659L35.1303 83.6927C34.3881 84.2003 33.6784 84.6502 33.0017 85.0431L32.3383 85.3949C31.689 85.7277 31.0807 86.0036 30.5133 86.2219C29.7566 86.4838 29.1017 86.6148 28.5487 86.6148L28.3773 86.6234C27.9859 86.6616 27.6501 86.8331 27.37 87.1386L27.2445 87.2611C26.9643 87.554 26.7734 87.8916 26.6715 88.2737C26.526 88.6812 26.5405 89.045 26.7151 89.3651C26.868 89.6704 27.1656 89.843 27.6078 89.8812L27.8066 89.889C28.4177 89.8889 29.1183 89.766 29.9076 89.5209L30.2513 89.4088C30.9499 89.1686 31.6977 88.8547 32.4945 88.4672L33.3073 88.0554C34.115 87.597 34.9553 87.0812 35.8285 86.5082L36.7125 85.9163C37.5021 85.377 38.2957 84.79 39.098 84.1615L33.7438 100.585C33.0162 102.739 32.6233 104.528 32.5651 105.955C32.4778 107.381 32.6233 108.516 33.0017 109.36C33.38 110.204 33.9039 110.8 34.5733 111.15C35.159 111.481 35.7895 111.667 36.4642 111.708L36.7561 111.717C38.0367 111.717 39.1282 111.426 40.0304 110.844C40.9617 110.262 41.7621 109.447 42.4315 108.399C43.0173 107.508 43.5138 106.516 43.9213 105.424L44.0904 104.951C44.4979 103.728 44.8471 102.418 45.1382 101.021C45.4583 99.6244 45.6912 98.1401 45.8367 96.5685C45.9677 95.4114 46.0658 94.238 46.1312 93.0482L46.186 91.8535C46.2442 90.2819 46.2296 88.7248 46.1423 87.1823C46.0986 86.3966 46.0365 85.6251 45.9564 84.8685L45.9467 84.7894C46.2282 85.2483 46.5278 85.6434 46.8441 85.9759C46.8747 86.36 46.9025 86.7473 46.9242 87.1381L46.9769 88.3158C47.0028 89.1033 47.0095 89.8943 46.9984 90.6888L46.9682 91.8822C46.9094 93.4965 46.7915 95.0824 46.6156 96.64L46.6166 96.641C46.4682 98.2436 46.2304 99.7627 45.9017 101.197L45.9008 101.196C45.6048 102.614 45.2499 103.948 44.8334 105.198L44.8314 105.203C44.3771 106.536 43.797 107.742 43.0902 108.82L43.0912 108.821C42.3675 109.953 41.4878 110.857 40.4457 111.508L40.4447 111.507C39.3954 112.181 38.1537 112.5 36.7562 112.5C35.8476 112.5 34.9955 112.281 34.2123 111.843L34.2113 111.844C34.207 111.842 34.2029 111.839 34.1986 111.836C34.1952 111.834 34.1913 111.833 34.1879 111.831L34.1889 111.83C33.4492 111.438 32.8783 110.822 32.4594 110.033L32.2875 109.68C31.8367 108.674 31.6924 107.397 31.7836 105.907C31.8483 104.378 32.2658 102.515 33.0023 100.334L37.5932 86.2543L37.1537 86.5629C35.9455 87.388 34.7921 88.1133 33.6937 88.7367L33.6723 88.7484C32.6814 89.2699 31.7489 89.6939 30.8764 90.017L30.5062 90.1488C29.524 90.4864 28.6195 90.6722 27.807 90.6722C27.1065 90.6722 26.393 90.4405 26.0287 89.7386L26.0277 89.7396C26.0261 89.7366 26.0255 89.7329 26.0238 89.7299C26.0212 89.7248 26.0176 89.7203 26.015 89.7152L26.016 89.7142C25.728 89.1683 25.7318 88.5762 25.934 88.0101C26.0933 87.458 26.3937 86.9796 26.8197 86.5824C27.2815 86.0926 27.8725 85.8314 28.5492 85.8314C28.9838 85.8313 29.5452 85.7269 30.2494 85.4838C30.957 85.2105 31.7432 84.8395 32.6088 84.3656C33.486 83.8562 34.4258 83.2446 35.4281 82.5287C36.4266 81.7865 37.4414 80.9719 38.4721 80.0843L38.4799 80.0775L39.2777 79.3978C39.5354 79.175 39.7924 78.9478 40.0502 78.7181L48.0609 54.1537C49.1483 50.7168 50.3792 48.1279 51.7885 46.4681L51.7943 46.4613L52.0736 46.1527C53.4923 44.6585 55.2062 43.8784 57.1869 43.8783C58.2591 43.8783 59.2232 44.1646 60.0404 44.764C60.8628 45.3466 61.484 46.1434 61.9125 47.1234C62.3202 47.9971 62.5391 48.9881 62.5873 50.0804L62.598 50.5541L62.5863 51.0756C62.5321 52.2988 62.2881 53.6084 61.8685 55.0013L61.8695 55.0023C61.4191 56.5937 60.7769 58.2646 59.9467 60.014L59.9447 60.0189C59.2199 61.5204 58.3825 63.0525 57.435 64.6156L57.0228 65.2875C56.0442 66.8584 54.987 68.4176 53.8519 69.9642L53.3607 70.6263C52.0373 72.3909 50.6263 74.1111 49.1273 75.7865L49.1264 75.7855C48.0356 77.0072 46.9282 78.1807 45.8041 79.306C45.9725 79.9571 46.1191 80.6313 46.2445 81.3285C46.0003 80.9029 45.7697 80.4239 45.554 79.8917C45.4219 79.5571 45.2978 79.2008 45.1791 78.8236C46.3171 77.6872 47.4389 76.5011 48.5434 75.2641C49.8423 73.8124 51.0745 72.3275 52.2396 70.809L52.7344 70.1563C53.8805 68.6281 54.9488 67.0889 55.9389 65.5384L56.3579 64.8738C57.3256 63.3204 58.1823 61.8004 58.9271 60.3138L59.2392 59.6787C60.0542 57.9615 60.6799 56.3317 61.1165 54.7892C61.524 53.4393 61.7532 52.1897 61.8041 51.0404L61.815 50.5545ZM57.3646 50.5541C57.3646 50.2148 57.3418 49.9309 57.3021 49.6966L57.2572 49.4779C57.1959 49.2328 57.1078 49.0942 57.0267 49.0131C57.0216 49.0079 56.9502 48.9359 56.6635 48.9359C56.4474 48.9359 56.1781 49.0255 55.8441 49.3373L55.8432 49.3382C55.5532 49.6075 55.1545 50.1999 54.6684 51.2279L54.6693 51.2289C54.2202 52.2114 53.6767 53.6381 53.0394 55.5209L48.599 69.306C48.8232 69.0124 49.0478 68.7189 49.2689 68.4222C50.4481 66.8113 51.5253 65.2018 52.5014 63.5941L52.5033 63.5912L52.8734 62.9799C53.7205 61.5587 54.4553 60.1738 55.0795 58.8256L55.0824 58.8207L55.3519 58.2357C55.9619 56.8819 56.4381 55.5902 56.7826 54.3597L56.9203 53.8402C57.2196 52.643 57.3646 51.5485 57.3646 50.5541ZM58.1381 51.0179C58.0935 52.113 57.8932 53.2975 57.5366 54.5709L57.3754 55.1205C56.9807 56.4095 56.4524 57.7544 55.7904 59.1548L55.5111 59.7465C54.8427 61.1311 54.0622 62.5493 53.171 64.0007L52.7953 64.6117C51.9072 66.0378 50.9409 67.4641 49.8968 68.8902L48.9935 70.0824C48.1966 71.118 47.3789 72.1332 46.5443 73.1312L52.2979 55.2694C52.9382 53.3776 53.4911 51.9224 53.9568 50.9037C54.3898 49.9869 54.7895 49.3265 55.1557 48.9222L55.3102 48.7646C55.7467 48.3571 56.1978 48.1534 56.6635 48.1534L56.8119 48.1586C57.146 48.1809 57.4021 48.2808 57.5803 48.459C57.784 48.6627 57.9295 48.9392 58.0169 49.2885C58.1035 49.6351 58.1472 50.0534 58.1478 50.5433C58.1478 50.5469 58.1478 50.5509 58.1478 50.5545L58.1381 51.0179Z" fill="#007AFF" />
</svg>