<svg width="18" height="18" viewBox="0 0 18 18" fill="none" xmlns="http://www.w3.org/2000/svg">
  <path fill-rule="evenodd" clip-rule="evenodd" d="M4.62456 13.1898C4.78073 12.8262 4.87571 12.4073 4.87571 11.9025C3.721 10.9582 3.00071 9.62181 3.00071 8.14017C3.00071 5.27886 5.68701 2.9593 9.00071 2.9593C12.3144 2.9593 15.0007 5.27886 15.0007 8.14017C15.0007 11.0015 12.3144 13.321 9.00071 13.321C8.48277 13.321 7.98014 13.2644 7.50071 13.1578C7.1834 13.5055 6.57409 13.9546 5.55777 14.312C4.97264 14.5177 4.25261 14.6931 3.37571 14.8013C3.85881 14.3246 4.3419 13.8478 4.62456 13.1898ZM7.90891 14.5995C8.2658 14.6466 8.63043 14.671 9.00071 14.671C12.8672 14.671 16.3506 11.9262 16.3506 8.14017C16.3506 4.35413 12.8672 1.60938 9.00071 1.60938C5.13425 1.60938 1.65079 4.35413 1.65079 8.14017C1.65079 9.81397 2.35483 11.3101 3.46144 12.4367C3.3299 12.9243 2.99387 13.2815 2.42752 13.8404C2.01616 14.2464 1.90884 14.8692 2.16062 15.3894C2.41239 15.9096 2.96739 16.2118 3.54098 16.1411C5.61658 15.885 7.02665 15.2675 7.90891 14.5995Z" fill="white" />
</svg>