<svg width="26" height="26" viewBox="0 0 26 26" fill="none" xmlns="http://www.w3.org/2000/svg">
  <path d="M18.8112 6.87508C19.2567 7.14736 19.3972 7.72928 19.1249 8.17483L12.6249 18.8112C12.468 19.0679 12.1983 19.2346 11.8986 19.2602C11.5988 19.2858 11.3048 19.1672 11.1067 18.9408L6.97029 14.2135C6.62645 13.8205 6.66627 13.2232 7.05923 12.8794C7.4522 12.5355 8.0495 12.5754 8.39335 12.9683L11.6824 16.7272L17.5114 7.18881C17.7837 6.74326 18.3656 6.6028 18.8112 6.87508Z" fill="white" />
  <path fill-rule="evenodd" clip-rule="evenodd" d="M26 13C26 20.1797 20.1797 26 13 26C5.8203 26 0 20.1797 0 13C0 5.8203 5.8203 0 13 0C20.1797 0 26 5.8203 26 13ZM19.1249 8.17483C19.3972 7.72928 19.2567 7.14736 18.8112 6.87508C18.3656 6.6028 17.7837 6.74326 17.5114 7.18881L11.6824 16.7272L8.39335 12.9683C8.0495 12.5754 7.4522 12.5355 7.05923 12.8794C6.66627 13.2232 6.62645 13.8205 6.97029 14.2135L11.1067 18.9408C11.3048 19.1672 11.5988 19.2858 11.8986 19.2602C12.1983 19.2346 12.468 19.0679 12.6249 18.8112L19.1249 8.17483Z" fill="#007AFF" />
</svg>