<svg width="28" height="24" viewBox="0 0 28 24" fill="none" xmlns="http://www.w3.org/2000/svg">
  <path fill-rule="evenodd" clip-rule="evenodd" d="M12.8864 0.499909C12.9199 0.499925 12.9539 0.499941 12.9883 0.499941L21.7413 0.499941C22.5463 0.499928 23.2107 0.499917 23.7519 0.544135C24.314 0.59006 24.8307 0.688624 25.316 0.935915C26.0686 1.31941 26.6806 1.93133 27.0641 2.68398C27.3114 3.16931 27.4099 3.68602 27.4558 4.24812C27.5001 4.7893 27.5 5.45366 27.5 6.25862V17.7413C27.5 18.5462 27.5001 19.2106 27.4558 19.7518C27.4099 20.3139 27.3114 20.8306 27.0641 21.3159C26.6806 22.0686 26.0686 22.6805 25.316 23.064C24.8307 23.3113 24.314 23.4098 23.7519 23.4557C23.2107 23.5 22.5463 23.5 21.7414 23.4999H12.9883C12.9539 23.4999 12.9199 23.5 12.8864 23.5C12.2514 23.5003 11.7716 23.5005 11.3089 23.3894C10.9007 23.2914 10.5106 23.1298 10.1527 22.9105C9.74696 22.6619 9.40786 22.3225 8.95907 21.8732C8.93538 21.8495 8.91137 21.8255 8.88704 21.8012L3.15784 16.072C2.58863 15.5028 2.11885 15.033 1.76743 14.6191C1.40244 14.1891 1.10677 13.7541 0.93845 13.236C0.677418 12.4326 0.677418 11.5672 0.93845 10.7639C1.10677 10.2458 1.40244 9.81077 1.76743 9.38083C2.11884 8.96688 2.58862 8.49712 3.15783 7.92793L8.88704 2.19872C8.91137 2.17439 8.93537 2.15037 8.95906 2.12666C9.40786 1.67743 9.74696 1.33801 10.1527 1.08938C10.5106 0.870066 10.9007 0.708448 11.3089 0.610461C11.7716 0.499378 12.2514 0.499607 12.8864 0.499909ZM12.9883 2.49994C12.2069 2.49994 11.9792 2.50637 11.7758 2.5552C11.5717 2.60419 11.3766 2.685 11.1977 2.79466C11.0193 2.90396 10.8538 3.06042 10.3013 3.61294L4.60125 9.31293C3.99556 9.91863 3.58437 10.3309 3.29211 10.6752C3.00743 11.0105 2.8948 11.215 2.84056 11.3819C2.71005 11.7836 2.71005 12.2163 2.84056 12.618C2.8948 12.7849 3.00743 12.9894 3.29211 13.3247C3.58437 13.669 3.99556 14.0813 4.60125 14.6869L10.3013 20.3869C10.8538 20.9395 11.0193 21.0959 11.1977 21.2052C11.3766 21.3149 11.5717 21.3957 11.7758 21.4447C11.9792 21.4935 12.2069 21.4999 12.9883 21.4999H21.7C22.5566 21.4999 23.1389 21.4992 23.589 21.4624C24.0274 21.4266 24.2516 21.3616 24.408 21.282C24.7843 21.0902 25.0903 20.7842 25.282 20.4079C25.3617 20.2515 25.4267 20.0273 25.4625 19.5889C25.4993 19.1388 25.5 18.5565 25.5 17.6999V6.29994C25.5 5.44336 25.4993 4.86107 25.4625 4.41098C25.4267 3.97256 25.3617 3.74836 25.282 3.59196C25.0903 3.21564 24.7843 2.90967 24.408 2.71793C24.2516 2.63824 24.0274 2.57331 23.589 2.53749C23.1389 2.50072 22.5566 2.49994 21.7 2.49994H12.9883ZM11.7929 7.29283C12.1835 6.90231 12.8166 6.90231 13.2071 7.29283L16.5 10.5857L19.7929 7.29283C20.1835 6.90231 20.8166 6.90231 21.2071 7.29283C21.5977 7.68336 21.5977 8.31652 21.2071 8.70705L17.9142 11.9999L21.2071 15.2928C21.5977 15.6834 21.5977 16.3165 21.2071 16.707C20.8166 17.0976 20.1835 17.0976 19.7929 16.707L16.5 13.4142L13.2071 16.707C12.8166 17.0976 12.1835 17.0976 11.7929 16.707C11.4024 16.3165 11.4024 15.6834 11.7929 15.2928L15.0858 11.9999L11.7929 8.70705C11.4024 8.31652 11.4024 7.68336 11.7929 7.29283Z" fill="#007AFF" />
</svg>