<svg width="18" height="18" viewBox="0 0 18 18" fill="none" xmlns="http://www.w3.org/2000/svg">
  <path d="M8.99961 10.0516L5.32461 13.7266C5.18711 13.8641 5.01211 13.9328 4.79961 13.9328C4.58711 13.9328 4.41211 13.8641 4.27461 13.7266C4.13711 13.5891 4.06836 13.4141 4.06836 13.2016C4.06836 12.9891 4.13711 12.8141 4.27461 12.6766L7.94961 9.00156L4.27461 5.32656C4.13711 5.18906 4.06836 5.01406 4.06836 4.80156C4.06836 4.58906 4.13711 4.41406 4.27461 4.27656C4.41211 4.13906 4.58711 4.07031 4.79961 4.07031C5.01211 4.07031 5.18711 4.13906 5.32461 4.27656L8.99961 7.95156L12.6746 4.27656C12.8121 4.13906 12.9871 4.07031 13.1996 4.07031C13.4121 4.07031 13.5871 4.13906 13.7246 4.27656C13.8621 4.41406 13.9309 4.58906 13.9309 4.80156C13.9309 5.01406 13.8621 5.18906 13.7246 5.32656L10.0496 9.00156L13.7246 12.6766C13.8621 12.8141 13.9309 12.9891 13.9309 13.2016C13.9309 13.4141 13.8621 13.5891 13.7246 13.7266C13.5871 13.8641 13.4121 13.9328 13.1996 13.9328C12.9871 13.9328 12.8121 13.8641 12.6746 13.7266L8.99961 10.0516Z" fill="#3C3C43" fill-opacity="0.6" />
</svg>