<svg width="24" height="24" viewBox="0 0 24 24" fill="none" xmlns="http://www.w3.org/2000/svg">
  <path fill-rule="evenodd" clip-rule="evenodd" d="M4.50159 4.43971C4.85072 4.08592 5.42056 4.08214 5.77435 4.43128L11.9997 10.5747L18.2251 4.43128C18.5788 4.08214 19.1487 4.08592 19.4978 4.43971C19.847 4.7935 19.8432 5.36334 19.4894 5.71247L13.281 11.8391L19.4894 17.9657C19.8432 18.3148 19.847 18.8847 19.4978 19.2385C19.1487 19.5923 18.5788 19.596 18.2251 19.2469L11.9997 13.1035L5.77435 19.2469C5.42056 19.596 4.85072 19.5923 4.50159 19.2385C4.15245 18.8847 4.15623 18.3148 4.51002 17.9657L10.7184 11.8391L4.51002 5.71247C4.15623 5.36334 4.15245 4.7935 4.50159 4.43971Z" fill="#007AFF" />
</svg>