<svg width="20" height="20" viewBox="0 0 20 20" fill="none" xmlns="http://www.w3.org/2000/svg">
    <path d="M5.55554 7.92633C5.55554 7.29759 5.80531 6.6946 6.24989 6.25002C6.69448 5.80543 7.29747 5.55566 7.92621 5.55566H15.6293C15.9406 5.55566 16.2489 5.61698 16.5365 5.73612C16.8242 5.85526 17.0855 6.02988 17.3056 6.25002C17.5258 6.47015 17.7004 6.73149 17.8195 7.01912C17.9387 7.30674 18 7.61501 18 7.92633V15.6294C18 15.9408 17.9387 16.249 17.8195 16.5367C17.7004 16.8243 17.5258 17.0856 17.3056 17.3058C17.0855 17.5259 16.8242 17.7005 16.5365 17.8197C16.2489 17.9388 15.9406 18.0001 15.6293 18.0001H7.92621C7.61489 18.0001 7.30662 17.9388 7.01899 17.8197C6.73137 17.7005 6.47003 17.5259 6.24989 17.3058C6.02976 17.0856 5.85514 16.8243 5.736 16.5367C5.61686 16.249 5.55554 15.9408 5.55554 15.6294V7.92633Z" stroke="#007AFF" stroke-width="3" stroke-linecap="round" stroke-linejoin="round"/>
    <path d="M2.89956 14.2107C2.62667 14.0556 2.39969 13.8311 2.24169 13.5599C2.08369 13.2887 2.0003 12.9805 2 12.6667V3.77778C2 2.8 2.8 2 3.77778 2H12.6667C13.3333 2 13.696 2.34222 14 2.88889" stroke="#007AFF" stroke-width="3" stroke-linecap="round" stroke-linejoin="round"/>
</svg>
