<svg width="18" height="18" viewBox="0 0 18 18" fill="none" xmlns="http://www.w3.org/2000/svg">
  <path fill-rule="evenodd" clip-rule="evenodd" d="M1.99316 3.80367C1.99316 3.48413 2.2522 3.2251 2.57174 3.2251H14.7827C15.1023 3.2251 15.3613 3.48413 15.3613 3.80367C15.3613 4.12321 15.1023 4.38224 14.7827 4.38224H2.57174C2.2522 4.38224 1.99316 4.12321 1.99316 3.80367ZM1.99316 7.29189C1.99316 6.97235 2.2522 6.71332 2.57174 6.71332H11.9096C12.2291 6.71332 12.4881 6.97235 12.4881 7.29189C12.4881 7.61142 12.2291 7.87046 11.9096 7.87046H2.57174C2.2522 7.87046 1.99316 7.61142 1.99316 7.29189ZM1.99316 10.7801C1.99316 10.4606 2.2522 10.2015 2.57174 10.2015H9.31991C9.63945 10.2015 9.89849 10.4606 9.89849 10.7801C9.89849 11.0996 9.63945 11.3587 9.31991 11.3587H2.57174C2.2522 11.3587 1.99316 11.0996 1.99316 10.7801Z" fill="#007AFF" />
  <path fill-rule="evenodd" clip-rule="evenodd" d="M13.143 9.60402C13.4025 9.01871 14.2332 9.01871 14.4927 9.60402L16.5962 14.3488C16.7257 14.6409 16.5939 14.9827 16.3017 15.1122C16.0096 15.2417 15.6678 15.1099 15.5383 14.8177L15.0482 13.7122H12.5875L12.0974 14.8177C11.9679 15.1099 11.6261 15.2417 11.334 15.1122C11.0419 14.9827 10.91 14.6409 11.0395 14.3488L13.143 9.60402ZM13.1005 12.555H14.5352L13.8179 10.937L13.1005 12.555Z" fill="#007AFF" />
</svg>