<svg width="18" height="18" viewBox="0 0 18 18" fill="none" xmlns="http://www.w3.org/2000/svg">
  <path fill-rule="evenodd" clip-rule="evenodd" d="M9.19344 2.70087C8.9316 2.9662 8.93444 3.39355 9.19977 3.65539L12.979 7.38482H10.0541C8.61256 7.38481 7.4701 7.3848 6.56661 7.49227C5.63879 7.60264 4.87492 7.83443 4.23822 8.36176C4.03359 8.53123 3.84531 8.71951 3.67584 8.92414C3.14851 9.56085 2.91671 10.3247 2.80635 11.2525C2.69888 12.156 2.69889 13.2985 2.6989 14.7401V14.7843C2.6989 15.1571 3.00109 15.4593 3.37386 15.4593C3.74664 15.4593 4.04883 15.1571 4.04883 14.7843C4.04883 13.2886 4.04995 12.2265 4.14683 11.412C4.24192 10.6126 4.42102 10.1408 4.7155 9.78519C4.83115 9.64555 4.95963 9.51707 5.09927 9.40142C5.45483 9.10694 5.92667 8.92784 6.72606 8.83275C7.54053 8.73587 8.60264 8.73475 10.0984 8.73475H12.979L9.64977 12.0201C9.38444 12.2819 9.3816 12.7093 9.64344 12.9746C9.90528 13.24 10.3326 13.2428 10.598 12.981L15.098 8.54021C15.2265 8.41338 15.2988 8.24035 15.2988 8.05978C15.2988 7.87922 15.2265 7.70619 15.098 7.57936L10.148 2.69454C9.88263 2.4327 9.45528 2.43554 9.19344 2.70087Z" fill="#007AFF" />
</svg>