<svg width="28" height="28" viewBox="0 0 28 28" fill="none" xmlns="http://www.w3.org/2000/svg">
  <path fill-rule="evenodd" clip-rule="evenodd" d="M13.9947 4.84541C13.8235 4.84541 13.6577 4.85026 13.4972 4.85961C11.3647 4.98378 10.101 5.90383 9.34655 6.9662C8.56497 8.06677 8.29653 9.37342 8.29653 10.2348V13.8108C8.29653 13.8551 8.29655 13.8988 8.29657 13.9419C8.29706 14.8172 8.29741 15.4596 8.09366 16.0646C8.05205 16.1881 8.00424 16.3095 7.95042 16.4282C7.68681 17.0097 7.24845 17.4792 6.65111 18.1191C6.62168 18.1506 6.59187 18.1825 6.56167 18.2149C5.97041 18.8489 5.58848 19.2611 5.36012 19.5774C5.31303 19.6427 5.27928 19.6948 5.25521 19.7355C5.30134 19.7456 5.36252 19.7565 5.44235 19.7665C5.82946 19.8153 6.39135 19.817 7.25829 19.817H20.7312C21.5981 19.817 22.16 19.8153 22.5471 19.7665C22.627 19.7565 22.6882 19.7456 22.7343 19.7355C22.7102 19.6948 22.6765 19.6427 22.6294 19.5774C22.401 19.2611 22.0191 18.8489 21.4278 18.2149C21.3976 18.1825 21.3678 18.1506 21.3384 18.1191C20.741 17.4792 20.3027 17.0097 20.0391 16.4282C19.9853 16.3095 19.9374 16.1881 19.8958 16.0646C19.6921 15.4596 19.6924 14.8172 19.6929 13.9419C19.6929 13.8988 19.693 13.8551 19.693 13.8108V10.2348C19.693 9.37342 19.4245 8.06677 18.6429 6.9662C17.8885 5.90383 16.6248 4.98378 14.4923 4.85961C14.3318 4.85026 14.166 4.84541 13.9947 4.84541ZM22.8582 19.6983C22.859 19.6979 22.8594 19.6977 22.8594 19.6977L22.8582 19.6983ZM5.19784 19.8514C5.19764 19.8523 5.1975 19.8528 5.19749 19.8528L5.19784 19.8514ZM13.3926 3.06265C13.5888 3.05123 13.7895 3.04541 13.9947 3.04541C14.2 3.04541 14.4007 3.05123 14.5969 3.06265C17.2855 3.2192 19.0461 4.42514 20.1105 5.92398C21.1478 7.38464 21.493 9.07445 21.493 10.2348V13.8108C21.493 14.873 21.5039 15.1997 21.6017 15.4901C21.624 15.5563 21.6496 15.6214 21.6785 15.685C21.805 15.9641 22.0198 16.2104 22.7442 16.9873L22.7859 17.0319C23.3237 17.6086 23.7859 18.1042 24.0889 18.5239C24.3827 18.931 24.7178 19.517 24.5402 20.2002C24.4906 20.391 24.4116 20.5729 24.3058 20.7393C23.9273 21.335 23.2702 21.4897 22.7721 21.5524C22.2584 21.6171 21.5809 21.6171 20.7923 21.617H7.19721C6.40863 21.6171 5.73105 21.6171 5.21742 21.5524C4.71934 21.4897 4.06221 21.335 3.68366 20.7393C3.57794 20.5729 3.49886 20.391 3.44928 20.2002C3.27173 19.517 3.60679 18.931 3.90061 18.5239C4.20361 18.1042 4.66576 17.6086 5.20362 17.0319L5.24525 16.9873C5.96969 16.2104 6.1845 15.9641 6.31103 15.685C6.33988 15.6214 6.3655 15.5563 6.3878 15.4901C6.4856 15.1997 6.49653 14.873 6.49653 13.8108V10.2348C6.49653 9.07445 6.84167 7.38464 7.87898 5.92398C8.94341 4.42514 10.704 3.2192 13.3926 3.06265Z" fill="#007AFF" />
  <path d="M13.9948 26.1398C15.0859 26.1398 16.0138 25.3119 16.3552 24.1575C16.5108 23.6317 16.0507 23.1777 15.5023 23.1777H12.4873C11.9389 23.1777 11.4788 23.6317 11.6344 24.1575C11.9758 25.3119 12.9037 26.1398 13.9948 26.1398Z" fill="#007AFF" />
</svg>