<svg width="18" height="18" viewBox="0 0 18 18" fill="none" xmlns="http://www.w3.org/2000/svg">
  <path d="M9 4.95763C9.33699 4.95763 9.61017 5.23081 9.61017 5.5678V8.38983H12.4322C12.7692 8.38983 13.0424 8.66301 13.0424 9C13.0424 9.33699 12.7692 9.61017 12.4322 9.61017H9.61017V12.4322C9.61017 12.7692 9.33699 13.0424 9 13.0424C8.66301 13.0424 8.38983 12.7692 8.38983 12.4322V9.61017H5.5678C5.23081 9.61017 4.95763 9.33699 4.95763 9C4.95763 8.66301 5.23081 8.38983 5.5678 8.38983H8.38983V5.5678C8.38983 5.23081 8.66301 4.95763 9 4.95763Z" fill="#3C3C43" fill-opacity="0.6" />
  <path fill-rule="evenodd" clip-rule="evenodd" d="M0 9C0 4.02944 4.02944 0 9 0C13.9706 0 18 4.02944 18 9C18 13.9706 13.9706 18 9 18C4.02944 18 0 13.9706 0 9ZM9 1.22034C4.70341 1.22034 1.22034 4.70341 1.22034 9C1.22034 13.2966 4.70341 16.7797 9 16.7797C13.2966 16.7797 16.7797 13.2966 16.7797 9C16.7797 4.70341 13.2966 1.22034 9 1.22034Z" fill="#3C3C43" fill-opacity="0.6" />
</svg>