<svg width="17" height="18" viewBox="0 0 17 18" fill="none" xmlns="http://www.w3.org/2000/svg">
<path d="M7.30371 0.75C11.1994 0.75 14.3574 3.90805 14.3574 7.80371C14.3574 9.48511 13.7681 11.0283 12.7861 12.2402L16.5615 16.001L16.6133 16.0576C16.8539 16.3517 16.8374 16.7865 16.5635 17.0615C16.2895 17.3366 15.8546 17.3548 15.5596 17.1152L15.5029 17.0635L11.7236 13.2988C10.5141 14.2729 8.9776 14.8574 7.30371 14.8574C3.40805 14.8574 0.25 11.6994 0.25 7.80371C0.250023 3.90806 3.40806 0.750023 7.30371 0.75ZM7.30371 2.25C4.23649 2.25002 1.75002 4.73649 1.75 7.80371C1.75 10.8709 4.23648 13.3574 7.30371 13.3574C10.371 13.3574 12.8574 10.871 12.8574 7.80371C12.8574 4.73648 10.3709 2.25 7.30371 2.25Z" fill="#3C3C43" fill-opacity="0.6"/>
</svg>
