<svg width="18" height="18" viewBox="0 0 18 18" fill="none" xmlns="http://www.w3.org/2000/svg">
  <path d="M7.51321 5.52289C7.97299 4.27548 8.20288 3.65178 8.53729 3.47335C8.82699 3.31878 9.17352 3.31878 9.46323 3.47335C9.79764 3.65178 10.0275 4.27548 10.4873 5.52289L10.7089 6.12409C10.8418 6.48466 10.9082 6.66495 11.0228 6.80018C11.124 6.91969 11.2517 7.01344 11.3954 7.07384C11.5581 7.14218 11.7482 7.15035 12.1285 7.16669L12.7627 7.19394C14.0784 7.25048 14.7362 7.27875 15.0074 7.54511C15.2424 7.77586 15.3495 8.109 15.2936 8.43528C15.229 8.8119 14.7133 9.22564 13.6817 10.0531L13.1845 10.4519C12.8863 10.6911 12.7373 10.8107 12.6454 10.9626C12.5643 11.0969 12.5155 11.2486 12.5031 11.4054C12.4891 11.5829 12.5401 11.7682 12.6423 12.1389L12.8126 12.7569C13.166 14.0393 13.3427 14.6805 13.1759 15.0235C13.0314 15.3207 12.751 15.5266 12.4268 15.5737C12.0525 15.628 11.5038 15.26 10.4065 14.524L9.87764 14.1693C9.56046 13.9566 9.40187 13.8502 9.23055 13.8088C9.07915 13.7723 8.92137 13.7723 8.76996 13.8088C8.59865 13.8502 8.44006 13.9566 8.12287 14.1693L7.59401 14.524C6.4967 15.26 5.94804 15.628 5.57375 15.5737C5.24949 15.5266 4.96914 15.3207 4.82465 15.0235C4.65785 14.6805 4.83454 14.0393 5.18793 12.7569L5.35824 12.1389C5.46039 11.7682 5.51146 11.5829 5.49742 11.4054C5.48501 11.2486 5.43625 11.0969 5.35509 10.9626C5.26326 10.8107 5.11417 10.6911 4.81599 10.4519L4.31882 10.0531C3.28726 9.22564 2.77148 8.8119 2.70695 8.43528C2.65104 8.109 2.75812 7.77586 2.99308 7.54511C3.26429 7.27875 3.92215 7.25048 5.23786 7.19394L5.87198 7.16669C6.2523 7.15035 6.44246 7.14218 6.60509 7.07384C6.74882 7.01344 6.87647 6.91969 6.97771 6.80018C7.09227 6.66495 7.15872 6.48466 7.29162 6.12409L7.51321 5.52289Z" fill="#007AFF" />
</svg>