<svg width="22" height="22" viewBox="0 0 22 22" fill="none" xmlns="http://www.w3.org/2000/svg">
<rect width="22" height="22" rx="5.13333" fill="url(#paint0_linear_96_4078)"/>
<path d="M11.832 4.29844C11.5702 3.45651 10.4304 3.45651 10.1686 4.29844L9.03698 7.93802C8.91991 8.31453 8.58414 8.56946 8.20529 8.56946H4.54316C3.69602 8.56946 3.3438 9.70226 4.02915 10.2226L5.33315 11.2126C5.97342 11.6988 6.77947 11.913 7.5766 11.8089L11.1345 11.3441C11.3656 11.3139 11.4756 11.632 11.2795 11.7632L7.84485 14.0603C7.26365 14.449 6.83334 15.0253 6.62574 15.6929L6.17789 17.1333C5.91611 17.9752 6.83824 18.6753 7.52359 18.155L10.4863 15.9056C10.7928 15.6729 11.2078 15.6729 11.5143 15.9056L14.4771 18.155C15.1624 18.6753 16.0845 17.9752 15.8228 17.1333L14.6911 13.4937C14.574 13.1172 14.7023 12.7047 15.0088 12.472L17.9715 10.2226C18.6569 9.70226 18.3046 8.56946 17.4575 8.56946H13.7954C13.4165 8.56946 13.0807 8.31453 12.9637 7.93802L11.832 4.29844Z" fill="white"/>
<defs>
<linearGradient id="paint0_linear_96_4078" x1="22" y1="-1.3113e-06" x2="1.3113e-06" y2="22" gradientUnits="userSpaceOnUse">
<stop stop-color="#B46EEC"/>
<stop offset="1" stop-color="#6B92FF"/>
</linearGradient>
</defs>
</svg>
