<svg width="26" height="26" viewBox="0 0 26 26" fill="none" xmlns="http://www.w3.org/2000/svg">
  <path fill-rule="evenodd" clip-rule="evenodd" d="M21.5989 22.75C19.3072 24.7727 16.297 26 13 26C5.8203 26 0 20.1797 0 13C0 5.8203 5.8203 0 13 0C20.1797 0 26 5.8203 26 13C26 16.8502 24.3262 20.3094 21.6667 22.6898L21.5989 22.75ZM24.375 13C24.375 19.2822 19.2822 24.375 13 24.375C6.71776 24.375 1.625 19.2822 1.625 13C1.625 6.71776 6.71776 1.625 13 1.625C19.2822 1.625 24.375 6.71776 24.375 13Z" fill="#3C3C43" fill-opacity="0.6" />
</svg>