<svg width="12" height="12" viewBox="0 0 12 12" fill="none" xmlns="http://www.w3.org/2000/svg">
<path d="M0 4.26364C0 3.29627 0 2.81259 0.185192 2.44311C0.348092 2.1181 0.608024 1.85386 0.927733 1.68826C1.29119 1.5 1.76699 1.5 2.71858 1.5H8.75044C9.70204 1.5 10.1778 1.5 10.5413 1.68826C10.861 1.85386 11.1209 2.1181 11.2838 2.44311C11.4257 2.7261 11.4589 3.07609 11.4667 3.65909H8.49557C7.70389 3.65909 7.30804 3.65909 6.99579 3.79057C6.57946 3.96588 6.24869 4.30213 6.07624 4.72537C5.9469 5.04279 5.9469 5.44519 5.9469 6.25C5.9469 7.05481 5.9469 7.45721 6.07624 7.77464C6.24869 8.19787 6.57946 8.53412 6.99579 8.70943C7.30804 8.84091 7.70389 8.84091 8.49557 8.84091H11.4667C11.4589 9.42391 11.4257 9.7739 11.2838 10.0569C11.1209 10.3819 10.861 10.6461 10.5413 10.8117C10.1778 11 9.70204 11 8.75044 11H2.71858C1.76699 11 1.29119 11 0.927733 10.8117C0.608024 10.6461 0.348092 10.3819 0.185192 10.0569C0 9.68741 0 9.20373 0 8.23636V4.26364Z" fill="#007AFF"/>
<path fill-rule="evenodd" clip-rule="evenodd" d="M6.69027 6.14205C6.69027 5.53744 6.69027 5.23514 6.80601 5.00421C6.90782 4.80109 7.07028 4.63594 7.2701 4.53244C7.49726 4.41477 7.79463 4.41477 8.38938 4.41477H10.3009C10.8956 4.41477 11.193 4.41477 11.4202 4.53244C11.62 4.63594 11.7824 4.80109 11.8843 5.00421C12 5.23514 12 5.53744 12 6.14205V6.35795C12 6.96256 12 7.26486 11.8843 7.49579C11.7824 7.69891 11.62 7.86406 11.4202 7.96756C11.193 8.08523 10.8956 8.08523 10.3009 8.08523H8.38938C7.79463 8.08523 7.49726 8.08523 7.2701 7.96756C7.07028 7.86406 6.90782 7.69891 6.80601 7.49579C6.69027 7.26486 6.69027 6.96256 6.69027 6.35795V6.14205ZM9.34513 6.25C9.34513 6.72697 8.96477 7.11364 8.49557 7.11364C8.02638 7.11364 7.64602 6.72697 7.64602 6.25C7.64602 5.77303 8.02638 5.38636 8.49557 5.38636C8.96477 5.38636 9.34513 5.77303 9.34513 6.25Z" fill="#007AFF"/>
</svg>
