<svg width="28" height="28" viewBox="0 0 28 28" fill="none" xmlns="http://www.w3.org/2000/svg">
  <rect width="28" height="28" rx="6.5" fill="#007AFF" />
  <path d="M21.5583 5.22481C21.7005 5.07651 21.969 5.1071 22.158 5.29314L22.3291 5.46158C22.5182 5.64762 22.5561 5.91865 22.414 6.06695L22.1565 6.33547C22.0854 6.40961 21.9512 6.39432 21.8566 6.30129L21.3433 5.79602C21.2487 5.70299 21.2298 5.56747 21.3008 5.49333L21.5583 5.22481Z" fill="white" />
  <path d="M20.9147 5.89611C20.9858 5.82196 21.12 5.83725 21.2145 5.93029L21.7279 6.43555C21.8224 6.52859 21.8414 6.6641 21.7703 6.73825L12.5667 16.3378C12.3296 16.5851 11.6852 16.7861 11.3627 16.8747C11.2851 16.896 11.1975 16.8098 11.2163 16.7306C11.2943 16.4014 11.4739 15.743 11.711 15.4956L20.9147 5.89611Z" fill="white" />
  <path d="M7.84323 7.33039C6.5491 7.33039 5.5 8.39331 5.5 9.7045V20.4959C5.5 21.8071 6.5491 22.87 7.84323 22.87H18.4943C19.7884 22.87 20.8375 21.8071 20.8375 20.4959V11.8628C20.8375 11.5052 20.5514 11.2153 20.1985 11.2153C19.8455 11.2153 19.5594 11.5052 19.5594 11.8628V20.4959C19.5594 21.0919 19.0825 21.575 18.4943 21.575H7.84323C7.25499 21.575 6.77813 21.0919 6.77813 20.4959V9.7045C6.77813 9.10851 7.25499 8.62536 7.84323 8.62536H16.7901C17.1431 8.62536 17.4292 8.33547 17.4292 7.97788C17.4292 7.62028 17.1431 7.33039 16.7901 7.33039H7.84323Z" fill="white" />
</svg>