<svg width="28" height="28" viewBox="0 0 28 28" fill="none" xmlns="http://www.w3.org/2000/svg">
<rect width="28" height="28" rx="6.53333" fill="#4BB6EF"/>
<path fill-rule="evenodd" clip-rule="evenodd" d="M23.3327 14.0013C23.3327 19.1559 19.154 23.3346 13.9993 23.3346C8.84471 23.3346 4.66602 19.1559 4.66602 14.0013C4.66602 8.84666 8.84471 4.66797 13.9993 4.66797C19.154 4.66797 23.3327 8.84666 23.3327 14.0013ZM17.1105 11.4566C17.1105 10.5003 16.7064 9.74934 16.0914 9.25404C15.4944 8.77332 14.7299 8.55527 13.9979 8.55687C13.2658 8.55847 12.5025 8.77984 11.9069 9.26039C11.2935 9.75523 10.8882 10.504 10.8882 11.4566C10.8882 11.8424 11.1943 12.1552 11.5719 12.1552C11.9495 12.1552 12.2556 11.8424 12.2556 11.4566C12.2556 10.947 12.4572 10.5967 12.7541 10.3572C13.0687 10.1034 13.5192 9.95524 14.0008 9.95419C14.4825 9.95314 14.9317 10.0993 15.245 10.3516C15.5402 10.5893 15.7431 10.9402 15.7431 11.4566C15.7431 12.081 15.6057 12.393 15.469 12.5782C15.3175 12.7835 15.1074 12.9205 14.772 13.1142L14.709 13.1505C14.4105 13.3217 13.9964 13.5593 13.6769 13.9509C13.3068 14.4046 13.1064 14.9974 13.1064 15.7976C13.1064 16.1834 13.4125 16.4962 13.7901 16.4962C14.1677 16.4962 14.4738 16.1834 14.4738 15.7976C14.4738 15.2523 14.603 14.9979 14.7272 14.8456C14.879 14.6596 15.0866 14.5376 15.4448 14.3307C15.7686 14.1437 16.2178 13.8841 16.5606 13.4198C16.9182 12.9354 17.1105 12.3048 17.1105 11.4566ZM14.7586 18.4709C14.7586 19.0093 14.3315 19.4457 13.8047 19.4457C13.2779 19.4457 12.8508 19.0093 12.8508 18.4709C12.8508 17.9326 13.2779 17.4961 13.8047 17.4961C14.3315 17.4961 14.7586 17.9326 14.7586 18.4709Z" fill="white"/>
</svg>
