<svg width="28" height="28" viewBox="0 0 28 28" fill="none" xmlns="http://www.w3.org/2000/svg">
<rect width="28" height="28" rx="6.53333" fill="#4BB6EF"/>
<path d="M7.12216 5.44141C5.76564 5.44141 4.66602 6.54939 4.66602 7.91615V9.89595C4.66602 10.4426 5.10591 10.8859 5.64847 10.8859H22.3502C22.8928 10.8859 23.3327 10.4426 23.3327 9.89595C23.3327 8.80253 22.453 7.91615 21.3678 7.91615H14.388C14.1393 7.91615 13.9008 7.81685 13.7256 7.6403L12.6463 6.5529C11.9401 5.84123 10.9821 5.44141 9.98318 5.44141H7.12216Z" fill="white"/>
<path d="M4.66602 13.8555C4.66602 12.7621 5.54569 11.8757 6.63093 11.8757H21.3678C22.453 11.8757 23.3327 12.7621 23.3327 13.8555V18.805C23.3327 20.4452 22.0131 21.7747 20.3853 21.7747H7.61338C5.98559 21.7747 4.66602 20.4452 4.66602 18.805V13.8555Z" fill="white"/>
</svg>
