<svg width="28" height="28" viewBox="0 0 28 28" fill="none" xmlns="http://www.w3.org/2000/svg">
<rect width="28" height="28" rx="6.53333" fill="#34C759"/>
<path fill-rule="evenodd" clip-rule="evenodd" d="M19.616 10.1188C19.616 11.9146 18.1744 13.3704 16.3961 13.3704C14.6178 13.3704 13.1761 11.9146 13.1761 10.1188C13.1761 8.32298 14.6178 6.86719 16.3961 6.86719C18.1744 6.86719 19.616 8.32298 19.616 10.1188ZM18.5427 10.1188C18.5427 11.316 17.5816 12.2865 16.3961 12.2865C15.2105 12.2865 14.2495 11.316 14.2495 10.1188C14.2495 8.92159 15.2105 7.95106 16.3961 7.95106C17.5816 7.95106 18.5427 8.92159 18.5427 10.1188Z" fill="white"/>
<path fill-rule="evenodd" clip-rule="evenodd" d="M12.7468 10.4801C12.7468 12.0764 11.4654 13.3704 9.88468 13.3704C8.30395 13.3704 7.02251 12.0764 7.02251 10.4801C7.02251 8.88381 8.30395 7.58977 9.88468 7.58977C11.4654 7.58977 12.7468 8.88381 12.7468 10.4801ZM11.6735 10.4801C11.6735 11.4778 10.8726 12.2865 9.88468 12.2865C8.89672 12.2865 8.09582 11.4778 8.09582 10.4801C8.09582 9.48241 8.89672 8.67364 9.88468 8.67364C10.8726 8.67364 11.6735 9.48241 11.6735 10.4801Z" fill="white"/>
<path fill-rule="evenodd" clip-rule="evenodd" d="M23.0808 18.8545C22.116 16.7609 20.1502 14.093 16.3961 14.093C12.642 14.093 10.6761 16.7609 9.71137 18.8545C9.14464 20.0844 10.1238 21.3188 11.4671 21.3188H21.3251C22.6684 21.3188 23.6475 20.0844 23.0808 18.8545ZM22.1077 19.3118C21.2106 17.3651 19.5257 15.1769 16.3961 15.1769C13.2665 15.1769 11.5816 17.3651 10.6845 19.3118C10.5763 19.5466 10.615 19.7398 10.733 19.8994C10.8648 20.0776 11.1214 20.2349 11.4671 20.2349H21.3251C21.6707 20.2349 21.9274 20.0776 22.0592 19.8994C22.1772 19.7398 22.2159 19.5466 22.1077 19.3118Z" fill="white"/>
<path d="M9.9562 14.093C10.3283 14.093 10.6146 14.1177 10.8191 14.1456C11.0547 14.1777 11.2102 14.3837 11.2102 14.6214C11.2102 14.9837 10.8628 15.2464 10.5028 15.2065C10.3272 15.187 10.145 15.1769 9.9562 15.1769C7.74951 15.1769 6.47614 16.5504 5.72283 17.9509C5.61081 18.1591 5.64083 18.3202 5.74344 18.4621C5.86472 18.6298 6.11703 18.7898 6.46393 18.7898H8.0274C8.32671 18.7898 8.56934 19.0324 8.56934 19.3317C8.56934 19.631 8.32671 19.8736 8.0274 19.8736H6.46393C5.11875 19.8736 4.1376 18.6272 4.77968 17.4335C5.62872 15.8551 7.19492 14.093 9.9562 14.093Z" fill="white"/>
<path d="M16.3961 15.1769C19.5257 15.1769 21.2106 17.3651 22.1077 19.3118C22.2159 19.5466 22.1772 19.7398 22.0592 19.8994C21.9274 20.0776 21.6707 20.2349 21.3251 20.2349H11.4671C11.1214 20.2349 10.8648 20.0776 10.733 19.8994C10.615 19.7398 10.5763 19.5466 10.6845 19.3118C11.5816 17.3651 13.2665 15.1769 16.3961 15.1769Z" fill="white"/>
<path d="M16.3961 12.2865C17.5816 12.2865 18.5427 11.316 18.5427 10.1188C18.5427 8.92159 17.5816 7.95106 16.3961 7.95106C15.2105 7.95106 14.2495 8.92159 14.2495 10.1188C14.2495 11.316 15.2105 12.2865 16.3961 12.2865Z" fill="white"/>
</svg>
