<svg width="28" height="28" viewBox="0 0 28 28" fill="none" xmlns="http://www.w3.org/2000/svg">
<rect width="28" height="28" rx="6.53333" fill="#FF0000"/>
<path fill-rule="evenodd" clip-rule="evenodd" d="M17.9963 9.06686C17.9963 11.2957 16.2071 13.1025 14 13.1025C11.7929 13.1025 10.0037 11.2957 10.0037 9.06686C10.0037 6.83805 11.7929 5.03125 14 5.03125C16.2071 5.03125 17.9963 6.83805 17.9963 9.06686ZM16.6642 9.06686C16.6642 10.5527 15.4714 11.7573 14 11.7573C12.5286 11.7573 11.3358 10.5527 11.3358 9.06686C11.3358 7.58099 12.5286 6.37645 14 6.37645C15.4714 6.37645 16.6642 7.58099 16.6642 9.06686Z" fill="white"/>
<path fill-rule="evenodd" clip-rule="evenodd" d="M22.2965 19.9089C21.0991 17.3105 18.6592 13.9993 14 13.9993C9.34078 13.9993 6.9009 17.3105 5.70354 19.9089C5.00016 21.4353 6.21538 22.9673 7.88257 22.9673H20.1174C21.7846 22.9673 22.9998 21.4353 22.2965 19.9089ZM21.0887 20.4764C19.9754 18.0603 17.8842 15.3445 14 15.3445C10.1158 15.3445 8.02464 18.0603 6.91128 20.4764C6.77699 20.7679 6.82501 21.0076 6.97146 21.2056C7.13504 21.4269 7.45356 21.6221 7.88257 21.6221H20.1174C20.5464 21.6221 20.865 21.4269 21.0285 21.2056C21.175 21.0076 21.223 20.7679 21.0887 20.4764Z" fill="white"/>
<path d="M14 15.3445C17.8842 15.3445 19.9754 18.0603 21.0887 20.4764C21.223 20.7679 21.175 21.0076 21.0285 21.2056C20.865 21.4269 20.5464 21.6221 20.1174 21.6221H7.88257C7.45356 21.6221 7.13504 21.4269 6.97146 21.2056C6.82501 21.0076 6.77699 20.7679 6.91128 20.4764C8.02464 18.0603 10.1158 15.3445 14 15.3445Z" fill="white"/>
<path d="M14 11.7573C15.4714 11.7573 16.6642 10.5527 16.6642 9.06686C16.6642 7.58099 15.4714 6.37645 14 6.37645C12.5286 6.37645 11.3358 7.58099 11.3358 9.06686C11.3358 10.5527 12.5286 11.7573 14 11.7573Z" fill="white"/>
</svg>
