<svg width="28" height="28" viewBox="0 0 28 28" fill="none" xmlns="http://www.w3.org/2000/svg">
<rect width="28" height="28" rx="6.53333" fill="url(#paint0_linear_106_1787)"/>
<path fill-rule="evenodd" clip-rule="evenodd" d="M10.5895 4.69942C9.41265 4.86245 8.43179 5.76239 8.11986 6.96528C7.95785 7.5901 8.09296 8.47228 8.43329 9.01161C8.51279 9.13757 8.61659 9.31023 8.664 9.39528L8.75012 9.54992L7.64142 9.5444C7.03162 9.54135 6.61205 9.55261 6.70906 9.56949L6.88544 9.60011L6.60927 9.63603C6.11787 9.69987 5.6355 10.0963 5.5007 10.5471C5.4301 10.7832 5.42556 13.4172 5.49532 13.6768C5.55507 13.8991 5.83777 14.2251 6.07677 14.3473C6.16774 14.3938 6.37697 14.4514 6.54176 14.4752C6.71554 14.5004 8.18071 14.519 10.0314 14.5195L13.2214 14.5204L13.2063 12.0904L13.1911 9.66037H14.0169H14.8426L14.8416 12.0793L14.8406 14.4983H18.227H21.6134L21.8439 14.3939C22.0845 14.2849 22.3943 13.9877 22.4839 13.78C22.5554 13.6141 22.5858 11.0054 22.5203 10.6491C22.4636 10.3405 22.3054 10.101 22.0075 9.87253C21.6829 9.6237 21.4981 9.5941 20.2685 9.5941C19.6743 9.5941 19.2378 9.58663 19.2984 9.57753C19.3875 9.56415 19.3939 9.55562 19.3317 9.53286C19.264 9.50812 19.2739 9.47821 19.4137 9.28434C19.9552 8.53312 20.0955 7.59558 19.8003 6.70064C19.5374 5.90364 18.8489 5.16209 18.1172 4.88781C17.2697 4.5701 16.1493 4.59944 15.4245 4.95837C14.9544 5.19116 14.444 5.71105 14.2053 6.20014C14.1083 6.39896 14.0162 6.56297 14.0007 6.56464C13.9851 6.56628 13.9392 6.48459 13.8987 6.38306C13.7867 6.10259 13.4006 5.56817 13.1501 5.34686C12.8619 5.09224 12.3045 4.81628 11.9124 4.73406C11.6284 4.67455 10.9056 4.65559 10.5895 4.69942ZM10.9361 6.34462C10.4493 6.42079 9.96641 6.81723 9.83963 7.24487C9.66559 7.83204 9.80405 8.52115 10.1786 8.93168C10.6226 9.41857 11.1188 9.54475 12.4856 9.51846L13.147 9.50574L13.1353 8.82092C13.1211 7.99529 13.0664 7.55012 12.9514 7.32417C12.8241 7.07419 12.2423 6.49475 12.1807 6.55656C12.1665 6.57074 12.1549 6.55974 12.1549 6.53208C12.1549 6.40555 11.344 6.28086 10.9361 6.34462ZM16.354 6.34753C16.0088 6.39799 15.6844 6.57763 15.4009 6.87546C14.9561 7.34273 14.8486 7.7291 14.8461 8.87142C14.8449 9.38114 14.8555 9.47834 14.9145 9.50101C14.9528 9.51577 15.3763 9.52783 15.8556 9.52783C16.6064 9.52783 16.7618 9.51585 16.9783 9.44119C17.378 9.30343 17.6624 9.1275 17.8702 8.8894C18.1373 8.58357 18.2172 8.32719 18.2153 7.78265C18.2135 7.26506 18.1346 7.03986 17.8527 6.74884C17.6412 6.53054 17.3903 6.41239 17.0051 6.34979C16.6909 6.29867 16.6885 6.29867 16.354 6.34753ZM11.8553 9.60475C12.018 9.61319 12.2958 9.61328 12.4726 9.60484C12.6495 9.59644 12.5255 9.61113 12.1859 9.61108C11.8464 9.611 11.6927 9.59627 11.8553 9.60475ZM8.99101 15.5697L6.64291 15.5815V18.4729C6.64291 20.4067 6.65901 21.4417 6.69146 21.5983C6.8174 22.2053 7.26691 22.8265 7.75188 23.0636C8.1748 23.2704 8.29328 23.2795 10.821 23.2996L13.2132 23.3186L13.2127 19.5933C13.2124 17.5443 13.1999 15.7934 13.1849 15.7022L13.1575 15.5366L12.2483 15.5472C11.7483 15.5531 10.2825 15.5632 8.99101 15.5697ZM14.8155 16.8065C14.8315 17.481 14.8446 19.2257 14.8446 20.6837L14.8447 23.3346L17.2148 23.3092C19.89 23.2805 19.9387 23.275 20.4366 22.95C20.7709 22.7319 20.9692 22.4994 21.1486 22.1153C21.3525 21.6787 21.3751 21.2681 21.3611 18.2537L21.3488 15.6028L18.0676 15.5915L14.7864 15.5802L14.8155 16.8065Z" fill="white"/>
<defs>
<linearGradient id="paint0_linear_106_1787" x1="28" y1="0" x2="0" y2="28" gradientUnits="userSpaceOnUse">
<stop stop-color="#3DE27C"/>
<stop offset="1" stop-color="#007BD6"/>
</linearGradient>
</defs>
</svg>
