<svg width="28" height="28" viewBox="0 0 28 28" fill="none" xmlns="http://www.w3.org/2000/svg">
<rect width="28" height="28" rx="6.53333" fill="url(#paint0_linear_106_1783)"/>
<path d="M15.0579 5.47164C14.7247 4.40008 13.274 4.40008 12.9408 5.47164L11.5005 10.1038C11.3515 10.583 10.9242 10.9075 10.442 10.9075H5.78113C4.70296 10.9075 4.25468 12.3492 5.12694 13.0115L6.78658 14.2715C7.60147 14.8902 8.62735 15.1629 9.64188 15.0303L14.1701 14.4388C14.4643 14.4004 14.6043 14.8052 14.3546 14.9722L9.98329 17.8958C9.24358 18.3905 8.69591 19.1239 8.4317 19.9737L7.8617 21.8069C7.52853 22.8784 8.70215 23.7695 9.57441 23.1072L13.3452 20.2443C13.7352 19.9482 14.2635 19.9482 14.6535 20.2443L18.4243 23.1072C19.2965 23.7695 20.4702 22.8784 20.137 21.8069L18.6967 17.1747C18.5477 16.6955 18.7109 16.1705 19.101 15.8744L22.8718 13.0115C23.744 12.3492 23.2957 10.9075 22.2176 10.9075H17.5567C17.0745 10.9075 16.6472 10.583 16.4982 10.1038L15.0579 5.47164Z" fill="white"/>
<defs>
<linearGradient id="paint0_linear_106_1783" x1="28" y1="-1.66893e-06" x2="1.66893e-06" y2="28" gradientUnits="userSpaceOnUse">
<stop stop-color="#B46EEC"/>
<stop offset="1" stop-color="#6B92FF"/>
</linearGradient>
</defs>
</svg>
