<svg width="28" height="28" viewBox="0 0 28 28" fill="none" xmlns="http://www.w3.org/2000/svg">
  <rect width="28" height="28" rx="6.53333" fill="url(#paint0_linear_106_1759)" />
  <path d="M8.52632 20.7368V14C8.52632 13.3027 7.96042 12.7368 7.26316 12.7368C6.5659 12.7368 6 13.3027 6 14V20.7368C6 21.4341 6.5659 22 7.26316 22C7.96042 22 8.52632 21.4341 8.52632 20.7368Z" fill="white" />
  <path d="M15.2632 20.7368V7.26316C15.2632 6.5659 14.6973 6 14 6C13.3027 6 12.7368 6.5659 12.7368 7.26316V20.7368C12.7368 21.4341 13.3027 22 14 22C14.6973 22 15.2632 21.4341 15.2632 20.7368Z" fill="white" />
  <path d="M22 20.7368V10.6316C22 9.93432 21.4341 9.36842 20.7368 9.36842C20.0396 9.36842 19.4737 9.93432 19.4737 10.6316V20.7368C19.4737 21.4341 20.0396 22 20.7368 22C21.4341 22 22 21.4341 22 20.7368Z" fill="white" />
  <defs>
    <linearGradient id="paint0_linear_106_1759" x1="28" y1="-1.66893e-06" x2="1.66893e-06" y2="28" gradientUnits="userSpaceOnUse">
      <stop stop-color="#3AC6FC" />
      <stop offset="1" stop-color="#7261FF" />
    </linearGradient>
  </defs>
</svg>