<svg width="28" height="28" viewBox="0 0 28 28" fill="none" xmlns="http://www.w3.org/2000/svg">
<rect width="28" height="28" rx="6.53333" fill="#FF9500"/>
<path fill-rule="evenodd" clip-rule="evenodd" d="M6.22664 14.7443L6.22552 14.7396L4.66602 13.1983C4.66602 8.42672 8.90817 4.66797 13.9993 4.66797C16.6042 4.66797 18.9706 5.64415 20.6705 7.23154C22.3086 8.76119 23.3327 10.8653 23.3327 13.1983C23.3327 17.9699 19.0905 21.7286 13.9993 21.7286C13.7544 21.7286 13.5116 21.72 13.2712 21.703L11.6729 20.1234L11.6595 20.1262L6.22664 14.7443ZM6.04873 13.1983C6.04873 9.30964 9.54486 6.04787 13.9993 6.04787C16.2575 6.04787 18.2851 6.89379 19.7258 8.23914C21.1119 9.53342 21.95 11.283 21.95 13.1983C21.95 17.087 18.4538 20.3487 13.9993 20.3487C13.787 20.3487 13.5766 20.3412 13.3686 20.3266L13.3502 20.3252C12.8992 20.2925 12.4591 20.2259 12.0331 20.1283C11.901 20.0981 11.7796 20.1021 11.6729 20.1234L6.22552 14.7396C6.10885 14.2501 6.04873 13.7359 6.04873 13.1983Z" fill="white"/>
<path fill-rule="evenodd" clip-rule="evenodd" d="M11.9546 21.5233C12.3765 21.6094 12.8089 21.6695 13.2497 21.7015L11.6595 20.1262C11.4773 20.1654 11.3394 20.2541 11.2662 20.3052C11.144 20.3907 11.0159 20.509 10.9118 20.605L10.892 20.6233C10.6082 20.8849 10.2192 21.2429 9.57034 21.6061C9.33182 21.7396 9.04622 21.8296 8.75805 21.8847C8.83282 21.7868 8.90828 21.6815 8.98184 21.569C9.35534 20.9976 9.46182 20.3778 9.4366 19.8736C9.42399 19.6214 9.37784 19.3822 9.30415 19.1764C9.24109 19.0002 9.12062 18.7421 8.88866 18.5726C7.51795 17.5712 6.59389 16.2798 6.22664 14.7443L4.66602 13.1983C4.66602 15.8801 5.9176 18.0823 7.99899 19.6323L8.00207 19.6407C8.02505 19.7049 8.04894 19.8091 8.05561 19.9423C8.06894 20.209 8.01092 20.5287 7.82375 20.8151C7.62966 21.112 7.41376 21.3469 7.2188 21.5577L7.21287 21.5641C7.14736 21.6349 7.07622 21.7118 7.01563 21.7831C6.95728 21.8517 6.87777 21.9503 6.81708 22.0639C6.7638 22.1637 6.65279 22.407 6.74012 22.7021C6.83455 23.0212 7.08667 23.1663 7.22622 23.2247C7.33275 23.2693 7.44364 23.2899 7.51582 23.3011C7.60111 23.3143 7.69594 23.3233 7.79528 23.3287C7.99451 23.3394 8.23665 23.3365 8.49925 23.3127C9.01469 23.2658 9.67021 23.1323 10.2467 22.8096C11.0392 22.3661 11.5237 21.9194 11.8285 21.6385L11.8302 21.6369C11.8794 21.5916 11.9194 21.5548 11.9546 21.5233ZM11.9546 21.5233C11.8773 21.5075 11.8005 21.4908 11.7239 21.4733C11.8409 21.5001 11.9395 21.482 11.9989 21.462C12.033 21.4506 12.0546 21.4384 12.0611 21.4344L12.0596 21.4354C12.0483 21.4433 12.0249 21.4614 11.9825 21.4985L11.9546 21.5233ZM7.98579 19.601C7.99531 19.6156 8.02116 19.649 8.07185 19.686C8.04745 19.6682 8.02316 19.6503 7.99899 19.6323C7.99341 19.6174 7.98886 19.6073 7.98579 19.601ZM7.98579 19.601C7.98265 19.5962 7.98139 19.5933 7.98139 19.5933L7.98281 19.5954L7.98579 19.601ZM7.70549 21.9334L7.70897 21.9342C7.70657 21.9337 7.70549 21.9334 7.70549 21.9334Z" fill="white"/>
<path fill-rule="evenodd" clip-rule="evenodd" d="M13.9993 6.04787C9.54486 6.04787 6.04873 9.30964 6.04873 13.1983C6.04873 13.7359 6.10885 14.2501 6.22552 14.7396L11.6729 20.1234C11.7796 20.1021 11.901 20.0981 12.0331 20.1283C12.4591 20.2259 12.8992 20.2925 13.3502 20.3252L13.3686 20.3266C13.5766 20.3412 13.787 20.3487 13.9993 20.3487C18.4538 20.3487 21.95 17.087 21.95 13.1983C21.95 11.283 21.1119 9.53342 19.7258 8.23914C18.2851 6.89379 16.2575 6.04787 13.9993 6.04787ZM13.9993 14.4131C14.596 14.4131 15.0796 13.9305 15.0796 13.3351C15.0796 12.7397 14.596 12.257 13.9993 12.257C13.4027 12.257 12.9191 12.7397 12.9191 13.3351C12.9191 13.9305 13.4027 14.4131 13.9993 14.4131ZM10.7586 13.3351C10.7586 13.9305 10.275 14.4131 9.67836 14.4131C9.08176 14.4131 8.59811 13.9305 8.59811 13.3351C8.59811 12.7397 9.08176 12.257 9.67836 12.257C10.275 12.257 10.7586 12.7397 10.7586 13.3351ZM18.3203 14.4131C18.9169 14.4131 19.4006 13.9305 19.4006 13.3351C19.4006 12.7397 18.9169 12.257 18.3203 12.257C17.7237 12.257 17.2401 12.7397 17.2401 13.3351C17.2401 13.9305 17.7237 14.4131 18.3203 14.4131Z" fill="white"/>
<path d="M11.6595 20.1262L6.22664 14.7443C6.59389 16.2798 7.51795 17.5712 8.88866 18.5726C9.12062 18.7421 9.24109 19.0002 9.30415 19.1764C9.37784 19.3822 9.42399 19.6214 9.4366 19.8736C9.46182 20.3778 9.35534 20.9976 8.98184 21.569C8.90828 21.6815 8.83282 21.7868 8.75805 21.8847C9.04622 21.8296 9.33182 21.7396 9.57034 21.6061C10.2192 21.2429 10.6082 20.8849 10.892 20.6233L10.9118 20.605C11.0159 20.509 11.144 20.3907 11.2662 20.3052C11.3394 20.2541 11.4773 20.1654 11.6595 20.1262Z" fill="white"/>
</svg>
