<svg width="28" height="28" viewBox="0 0 28 28" fill="none" xmlns="http://www.w3.org/2000/svg">
<rect width="28" height="28" rx="6.62252" fill="#438AFC"/>
<path d="M4.53906 11.26C4.53906 9.73469 4.53906 8.97203 4.83107 8.38943C5.08793 7.87696 5.49779 7.46031 6.0019 7.19919C6.57501 6.90234 7.32524 6.90234 8.8257 6.90234H18.3367C19.8372 6.90234 20.5874 6.90234 21.1605 7.19919C21.6646 7.46031 22.0745 7.87696 22.3313 8.38943C22.555 8.83565 22.6073 9.38751 22.6196 10.3068H17.9348C16.6865 10.3068 16.0623 10.3068 15.57 10.5141C14.9135 10.7905 14.3919 11.3207 14.12 11.9881C13.9161 12.4886 13.9161 13.1231 13.9161 14.3921C13.9161 15.6611 13.9161 16.2956 14.12 16.7961C14.3919 17.4635 14.9135 17.9937 15.57 18.2701C16.0623 18.4774 16.6865 18.4774 17.9348 18.4774H22.6196C22.6073 19.3967 22.555 19.9486 22.3313 20.3948C22.0745 20.9072 21.6646 21.3239 21.1605 21.585C20.5874 21.8819 19.8372 21.8819 18.3367 21.8819H8.8257C7.32524 21.8819 6.57501 21.8819 6.0019 21.585C5.49779 21.3239 5.08793 20.9072 4.83107 20.3948C4.53906 19.8122 4.53906 19.0495 4.53906 17.5242V11.26Z" fill="white"/>
<path fill-rule="evenodd" clip-rule="evenodd" d="M15.0882 14.2219C15.0882 13.2686 15.0882 12.7919 15.2707 12.4278C15.4313 12.1075 15.6874 11.8471 16.0025 11.6839C16.3607 11.4983 16.8296 11.4983 17.7674 11.4983H20.7814C21.7192 11.4983 22.1881 11.4983 22.5463 11.6839C22.8614 11.8471 23.1175 12.1075 23.2781 12.4278C23.4606 12.7919 23.4606 13.2686 23.4606 14.2219V14.5623C23.4606 15.5157 23.4606 15.9923 23.2781 16.3564C23.1175 16.6767 22.8614 16.9371 22.5463 17.1003C22.1881 17.2859 21.7192 17.2859 20.7814 17.2859H17.7674C16.8296 17.2859 16.3607 17.2859 16.0025 17.1003C15.6874 16.9371 15.4313 16.6767 15.2707 16.3564C15.0882 15.9923 15.0882 15.5157 15.0882 14.5623V14.2219ZM19.2744 14.3921C19.2744 15.1442 18.6746 15.7539 17.9348 15.7539C17.195 15.7539 16.5952 15.1442 16.5952 14.3921C16.5952 13.64 17.195 13.0303 17.9348 13.0303C18.6746 13.0303 19.2744 13.64 19.2744 14.3921Z" fill="white"/>
</svg>
